<?xml version="1.0" encoding="utf-8"?>
<!-- Generator: Adobe Illustrator 21.0.1, SVG Export Plug-In . SVG Version: 6.00 Build 0)  -->
<svg version="1.1" xmlns="http://www.w3.org/2000/svg" xmlns:xlink="http://www.w3.org/1999/xlink" x="0px" y="0px"
	 viewBox="0 0 864 864" style="enable-background:new 0 0 864 864;" xml:space="preserve">
<style type="text/css">
	.st0{display:none;}
	.st1{display:inline;}
	.st2{font-family:'MyriadPro-Bold';}
	.st3{font-size:326.5631px;}
	.st4{font-size:265.031px;}
	.st5{fill:#F46A1F;stroke:#002244;stroke-width:6;stroke-miterlimit:10;}
	.st6{fill:#002244;}
	.st7{font-family:'MyanmarText-Bold';}
	.st8{font-size:87.9221px;}
	.st9{font-size:43.0906px;}
	.st10{font-size:41.4613px;}
	.st11{font-size:60.332px;}
	.st12{font-size:60.3317px;}
	.st13{fill:#F46A1F;}
	.st14{font-size:19.0971px;}
	.st15{fill:#002244;stroke:#F46A1F;stroke-width:6;stroke-miterlimit:10;}
	.st16{fill:#FFFFFF;}
	.st17{fill:#FFFFFF;stroke:#000000;stroke-width:5;stroke-miterlimit:10;}
	.st18{font-size:52px;}
	.st19{fill:none;stroke:#002244;stroke-width:6;stroke-miterlimit:10;}
	.st20{fill:url(#SVGID_1_);}
	.st21{fill:url(#SVGID_2_);}
	.st22{fill:url(#SVGID_3_);}
	.st23{fill:url(#SVGID_4_);}
	.st24{font-family:'Almaq-Rough';}
	.st25{font-size:24.9898px;}
	.st26{fill:url(#SVGID_5_);}
	.st27{fill:url(#SVGID_6_);}
	.st28{font-family:'FilsonSoftRegular';}
	.st29{font-size:18.6161px;}
	.st30{fill:url(#SVGID_7_);}
	.st31{font-size:160.0479px;}
	.st32{font-size:153.9963px;}
	.st33{font-size:224.0871px;}
	.st34{font-size:224.0866px;}
	.st35{font-size:224.0874px;}
	.st36{font-size:224.0864px;}
	.st37{font-size:79.1896px;}
	.st38{font-size:79.1893px;}
	.st39{font-size:79.189px;}
	.st40{font-size:96.4277px;}
	.st41{font-size:96.4274px;}
</style>
<g id="Layer_1" class="st0">
	<g class="st1">
		<g>
			<g>
				<path d="M547.4,456.3C547.6,523,499.9,572.6,436,572c-64.2-0.6-111.4-50.1-111-116.3c0.4-66.9,47.5-115.5,111.7-115.5
					C501.1,340.2,547.2,388.4,547.4,456.3z"/>
			</g>
			<path d="M267.1,797.8c2.5-20.8,11.9-44.7,28.6-72.1c0,26.3,0,49.9,0,72.1h279.1c-0.1-8.5-0.1-17-0.2-25.5
				c-0.4-41.7,11.1-70.2,43.9-96.3c29.1-23.1,53.9-52.8,76.7-82.6c46.7-60.8,57.3-131.6,46.2-205.6c-4.1-27.4-20.1-49.9-52.5-42.3
				c-28.6,6.7-42.5,27.2-35.4,58.1c1,4.4,2.4,8.8,3.1,13.2c15.5,94.4-62.8,187.1-158,187.1c-51.3,0-102.6,0-153.9,0
				c-47.2,0-84.3,21.2-113.1,56.8c-33.6,41.5-50.8,89.2-52.3,137H267.1z"/>
		</g>
		<text transform="matrix(1 0 0 1 374.369 300.4766)" class="st2 st3">?</text>
		<text transform="matrix(0.7071 -0.7071 0.7071 0.7071 318.1239 361.7157)" class="st2 st4">?</text>
		<text transform="matrix(0.7071 0.7071 -0.7071 0.7071 490.6478 285.5411)" class="st2 st4">?</text>
	</g>
</g>
<g id="Layer_2" class="st0">
	<g class="st1">
		<path class="st5" d="M673.4,430.6c0,45.2-27.2,84-66.2,101c0,0,0,0-0.1,0c-10.7,4.6-22.2,7.6-34.3,8.7c-3.1,0.3-6.3,0.4-9.5,0.4
			c-3.2,0-6.4-0.1-9.5-0.4c-10.3-0.9-20.3-3.2-29.6-6.7c-2.1-0.8-4.1-1.6-6.1-2.5c-8.4-3.8-16.2-8.6-23.3-14.2
			c-25.3-20.2-41.6-51.3-41.6-86.2c0-60.8,49.3-110,110-110S673.4,369.8,673.4,430.6z"/>
		<g>
			<g>
				<path class="st6" d="M599,438.7c0.1,19.8-14.1,34.6-33.1,34.4c-19.1-0.2-33.1-14.9-33-34.6c0.1-19.9,14.1-34.3,33.2-34.3
					C585.3,404.2,599,418.6,599,438.7z"/>
			</g>
			<path class="st6" d="M643,479.5c-6.8,8.8-14.1,17.7-22.8,24.6c-7.5,5.9-11.6,17.2-13,27.5c0,0,0,0-0.1,0
				c-10.7,4.6-22.2,7.6-34.3,8.7c-3.1,0.3-6.3,0.4-9.5,0.4c-3.2,0-6.4-0.1-9.5-0.4c-10.3-0.9-20.3-3.2-29.6-6.7v-14.7
				c-2.6,4.3-4.7,8.4-6.1,12.2c-8.4-3.8-16.2-8.6-23.3-14.2c2.5-6,6-11.8,10.4-17.2c8.6-10.6,19.6-16.9,33.6-16.9
				c15.2,0,30.5,0,45.7,0c28.3,0,51.6-27.5,47-55.6c-0.2-1.3-0.6-2.6-0.9-3.9c-2.1-9.2,2-15.3,10.5-17.3c9.6-2.3,14.4,4.4,15.6,12.6
				C660,440.4,656.8,461.4,643,479.5z"/>
		</g>
		<text transform="matrix(1 0 0 1 547.0121 392.6558)" class="st6 st7 st8">?</text>
		<text transform="matrix(0.7071 -0.7071 0.7071 0.7071 525.9096 403.424)" class="st6 st7 st9">?</text>
		<text transform="matrix(0.7071 0.7071 -0.7071 0.7071 591.7859 390.5989)" class="st6 st7 st10">?</text>
		<text transform="matrix(0.8124 0.583 -0.583 0.8124 577.0276 366.9778)" class="st6 st7 st11">?</text>
		<text transform="matrix(0.8125 -0.583 0.583 0.8125 533.6635 381.0757)" class="st6 st7 st12">?</text>
		<text transform="matrix(1 0 0 1 532.933 519.7883)" class="st13 st7 st14">HelpMe</text>
	</g>
	<g class="st1">
		<path class="st15" d="M389,423.1c0,45.2-27.2,84-66.2,101c0,0,0,0-0.1,0c-10.7,4.6-22.2,7.6-34.3,8.7c-3.1,0.3-6.3,0.4-9.5,0.4
			s-6.4-0.1-9.5-0.4c-10.3-0.9-20.3-3.2-29.6-6.7c-2.1-0.8-4.1-1.6-6.1-2.5c-8.4-3.8-16.2-8.6-23.3-14.2
			c-25.3-20.2-41.6-51.3-41.6-86.2c0-60.8,49.3-110,110-110S389,362.3,389,423.1z"/>
		<g>
			<g>
				<path class="st13" d="M314.6,431.2c0.1,19.8-14.1,34.6-33.1,34.4c-19.1-0.2-33.1-14.9-33-34.6c0.1-19.9,14.1-34.3,33.2-34.3
					C300.9,396.7,314.6,411.1,314.6,431.2z"/>
			</g>
			<path class="st13" d="M358.6,472c-6.8,8.8-14.1,17.7-22.8,24.6c-7.5,5.9-11.6,17.2-13,27.5c0,0,0,0-0.1,0
				c-10.7,4.6-22.2,7.6-34.3,8.7c-3.1,0.3-6.3,0.4-9.5,0.4s-6.4-0.1-9.5-0.4c-10.3-0.9-20.3-3.2-29.6-6.7v-14.7
				c-2.6,4.3-4.7,8.4-6.1,12.2c-8.4-3.8-16.2-8.6-23.3-14.2c2.5-6,6-11.8,10.4-17.2c8.6-10.6,19.6-16.9,33.6-16.9
				c15.2,0,30.5,0,45.7,0c28.3,0,51.6-27.5,47-55.6c-0.2-1.3-0.6-2.6-0.9-3.9c-2.1-9.2,2-15.3,10.5-17.3c9.6-2.3,14.4,4.4,15.6,12.6
				C375.6,432.9,372.4,453.9,358.6,472z"/>
		</g>
		<text transform="matrix(1 0 0 1 262.5956 385.1338)" class="st13 st7 st8">?</text>
		<text transform="matrix(0.7071 -0.7071 0.7071 0.7071 241.4931 395.902)" class="st13 st7 st9">?</text>
		<text transform="matrix(0.7071 0.7071 -0.7071 0.7071 307.3694 383.0769)" class="st13 st7 st10">?</text>
		<text transform="matrix(0.8124 0.583 -0.583 0.8124 292.6112 359.4558)" class="st13 st7 st11">?</text>
		<text transform="matrix(0.8125 -0.583 0.583 0.8125 249.247 373.5537)" class="st13 st7 st12">?</text>
		<text transform="matrix(1 0 0 1 248.5165 512.2663)" class="st16 st7 st14">HelpMe</text>
	</g>
	<g class="st1">
		<g>
			<path class="st6" d="M372.6,677.8c0,45.2-27.2,84-66.2,101c0,0,0,0-0.1,0c-10.7,4.6-22.2,7.6-34.3,8.7c-3.1,0.3-6.3,0.4-9.5,0.4
				s-6.4-0.1-9.5-0.4c-10.3-0.9-20.3-3.2-29.6-6.7c-2.1-0.8-4.1-1.6-6.1-2.5c-8.4-3.8-16.2-8.6-23.3-14.2
				c-25.3-20.2-41.6-51.3-41.6-86.2c0-60.8,49.3-110,110-110S372.6,617,372.6,677.8z"/>
			<path class="st13" d="M262.6,790.8c-3.3,0-6.5-0.1-9.8-0.4c-10.4-0.9-20.7-3.2-30.4-6.9c-2.1-0.8-4.2-1.7-6.3-2.6
				c-8.5-3.8-16.6-8.8-23.9-14.6c-27.1-21.6-42.7-53.9-42.7-88.5c0-62.3,50.7-113,113-113c62.3,0,113,50.7,113,113
				c0,45-26.7,85.7-68,103.7c-11.2,4.9-23.1,7.9-35.3,8.9C269.1,790.7,265.8,790.8,262.6,790.8z M262.6,570.7c-59,0-107,48-107,107
				c0,32.8,14.7,63.4,40.4,83.8c6.9,5.5,14.6,10.2,22.6,13.8c1.9,0.9,3.9,1.7,5.9,2.5c9.2,3.5,18.9,5.7,28.8,6.6
				c6.1,0.5,12.4,0.5,18.5,0c11.5-1,22.8-3.8,33.4-8.4c39.2-17,64.4-55.6,64.4-98.2C369.6,618.8,321.6,570.7,262.6,570.7z"/>
		</g>
		<g>
			<g>
				<path class="st16" d="M298.3,685.9c0.1,19.8-14.1,34.6-33.1,34.4c-19.1-0.2-33.1-14.9-33-34.6c0.1-19.9,14.1-34.3,33.2-34.3
					C284.6,651.4,298.2,665.8,298.3,685.9z"/>
			</g>
			<path class="st16" d="M342.3,726.7c-6.8,8.8-14.1,17.7-22.8,24.6c-7.5,5.9-11.6,17.2-13,27.5c0,0,0,0-0.1,0
				c-10.7,4.6-22.2,7.6-34.3,8.7c-3.1,0.3-6.3,0.4-9.5,0.4s-6.4-0.1-9.5-0.4c-10.3-0.9-20.3-3.2-29.6-6.7V766
				c-2.6,4.3-4.7,8.4-6.1,12.2c-8.4-3.8-16.2-8.6-23.3-14.2c2.5-6,6-11.8,10.4-17.2c8.6-10.6,19.6-16.9,33.6-16.9
				c15.2,0,30.5,0,45.7,0c28.3,0,51.6-27.5,47-55.6c-0.2-1.3-0.6-2.6-0.9-3.9c-2.1-9.2,2-15.3,10.5-17.3c9.6-2.3,14.4,4.4,15.6,12.6
				C359.3,687.6,356.1,708.6,342.3,726.7z"/>
		</g>
		<text transform="matrix(1 0 0 1 246.2842 639.8487)" class="st16 st7 st8">?</text>
		<text transform="matrix(0.7071 -0.7071 0.7071 0.7071 225.1817 650.6169)" class="st16 st7 st9">?</text>
		<text transform="matrix(0.7071 0.7071 -0.7071 0.7071 291.0581 637.7917)" class="st16 st7 st10">?</text>
		<text transform="matrix(0.8124 0.583 -0.583 0.8124 276.2998 614.1707)" class="st13 st7 st11">?</text>
		<text transform="matrix(0.8125 -0.583 0.583 0.8125 232.9357 628.2686)" class="st13 st7 st12">?</text>
		<text transform="matrix(1 0 0 1 232.2051 766.9811)"><tspan x="0" y="0" class="st6 st7 st14">Help</tspan><tspan x="42.2" y="0" class="st13 st7 st14">Me</tspan></text>
		<path class="st13" d="M262.6,790.8c-3.3,0-6.5-0.1-9.8-0.4c-10.4-0.9-20.7-3.2-30.4-6.9c-2.1-0.8-4.2-1.7-6.3-2.6
			c-8.5-3.8-16.6-8.8-23.9-14.6c-27.1-21.6-42.7-53.9-42.7-88.5c0-62.3,50.7-113,113-113c62.3,0,113,50.7,113,113
			c0,45-26.7,85.7-68,103.7c-11.2,4.9-23.1,7.9-35.3,8.9C269.1,790.7,265.8,790.8,262.6,790.8z M262.6,570.7c-59,0-107,48-107,107
			c0,32.8,14.7,63.4,40.4,83.8c6.9,5.5,14.6,10.2,22.6,13.8c1.9,0.9,3.9,1.7,5.9,2.5c9.2,3.5,18.9,5.7,28.8,6.6
			c6.1,0.5,12.4,0.5,18.5,0c11.5-1,22.8-3.8,33.4-8.4c39.2-17,64.4-55.6,64.4-98.2C369.6,618.8,321.6,570.7,262.6,570.7z"/>
	</g>
	<g class="st1">
		<path d="M395.6,161.5c0,45.2-27.2,84-66.2,101c0,0,0,0-0.1,0c-10.7,4.6-22.2,7.6-34.3,8.7c-3.1,0.3-6.3,0.4-9.5,0.4
			s-6.4-0.1-9.5-0.4c-10.3-0.9-20.3-3.2-29.6-6.7c-2.1-0.8-4.1-1.6-6.1-2.5c-8.4-3.8-16.2-8.6-23.3-14.2
			c-25.3-20.2-41.6-51.3-41.6-86.2c0-60.8,49.3-110,110-110S395.6,100.7,395.6,161.5z"/>
		<g>
			<g>
				<path class="st16" d="M321.3,169.6c0.1,19.8-14.1,34.6-33.1,34.4c-19.1-0.2-33.1-14.9-33-34.6c0.1-19.9,14.1-34.3,33.2-34.3
					C307.5,135.1,321.2,149.5,321.3,169.6z"/>
			</g>
			<path class="st16" d="M365.2,210.4c-6.8,8.8-14.1,17.7-22.8,24.6c-7.5,5.9-11.6,17.2-13,27.5c0,0,0,0-0.1,0
				c-10.7,4.6-22.2,7.6-34.3,8.7c-3.1,0.3-6.3,0.4-9.5,0.4s-6.4-0.1-9.5-0.4c-10.3-0.9-20.3-3.2-29.6-6.7v-14.7
				c-2.6,4.3-4.7,8.4-6.1,12.2c-8.4-3.8-16.2-8.6-23.3-14.2c2.5-6,6-11.8,10.4-17.2c8.6-10.6,19.6-16.9,33.6-16.9
				c15.2,0,30.5,0,45.7,0c28.3,0,51.6-27.5,47-55.6c-0.2-1.3-0.6-2.6-0.9-3.9c-2.1-9.2,2-15.3,10.5-17.3c9.6-2.3,14.4,4.4,15.6,12.6
				C382.2,171.3,379.1,192.3,365.2,210.4z"/>
		</g>
		<text transform="matrix(1 0 0 1 269.2515 123.5528)" class="st16 st7 st8">?</text>
		<text transform="matrix(0.7071 -0.7071 0.7071 0.7071 248.149 134.321)" class="st16 st7 st9">?</text>
		<text transform="matrix(0.7071 0.7071 -0.7071 0.7071 314.0253 121.4958)" class="st16 st7 st10">?</text>
		<text transform="matrix(0.8124 0.583 -0.583 0.8124 299.2671 97.8748)" class="st16 st7 st11">?</text>
		<text transform="matrix(0.8125 -0.583 0.583 0.8125 255.9029 111.9727)" class="st16 st7 st12">?</text>
		<text transform="matrix(1 0 0 1 255.1724 250.6853)" class="st7 st14">HelpMe</text>
		<path class="st17" d="M665.5,151.9c0,45.2-27.2,84-66.2,101c0,0,0,0-0.1,0c-10.7,4.6-22.2,7.6-34.3,8.7c-3.1,0.3-6.3,0.4-9.5,0.4
			c-3.2,0-6.4-0.1-9.5-0.4c-10.3-0.9-20.3-3.2-29.6-6.7c-2.1-0.8-4.1-1.6-6.1-2.5c-8.4-3.8-16.2-8.6-23.3-14.2
			c-25.3-20.2-41.6-51.3-41.6-86.2c0-60.8,49.3-110,110-110C616.3,41.9,665.5,91.1,665.5,151.9z"/>
		<g>
			<g>
				<path d="M591.2,160.1c0.1,19.8-14.1,34.6-33.1,34.4c-19.1-0.2-33.1-14.9-33-34.6c0.1-19.9,14.1-34.3,33.2-34.3
					C577.5,125.6,591.2,139.9,591.2,160.1z"/>
			</g>
			<path d="M635.2,200.8c-6.8,8.8-14.1,17.7-22.8,24.6c-7.5,5.9-11.6,17.2-13,27.5c0,0,0,0-0.1,0c-10.7,4.6-22.2,7.6-34.3,8.7
				c-3.1,0.3-6.3,0.4-9.5,0.4c-3.2,0-6.4-0.1-9.5-0.4c-10.3-0.9-20.3-3.2-29.6-6.7v-14.7c-2.6,4.3-4.7,8.4-6.1,12.2
				c-8.4-3.8-16.2-8.6-23.3-14.2c2.5-6,6-11.8,10.4-17.2C506,210.3,517,204,531,204c15.2,0,30.5,0,45.7,0c28.3,0,51.6-27.5,47-55.6
				c-0.2-1.3-0.6-2.6-0.9-3.9c-2.1-9.2,2-15.3,10.5-17.3c9.6-2.3,14.4,4.4,15.6,12.6C652.2,161.7,649,182.8,635.2,200.8z"/>
		</g>
		<text transform="matrix(1 0 0 1 539.1849 113.9896)" class="st7 st8">?</text>
		<text transform="matrix(0.7071 -0.7071 0.7071 0.7071 518.0825 124.7578)" class="st7 st9">?</text>
		<text transform="matrix(0.7071 0.7071 -0.7071 0.7071 583.9588 111.9326)" class="st7 st10">?</text>
		<text transform="matrix(0.8124 0.583 -0.583 0.8124 569.2005 88.3116)" class="st7 st11">?</text>
		<text transform="matrix(0.8125 -0.583 0.583 0.8125 525.8364 102.4094)" class="st7 st12">?</text>
		<text transform="matrix(1 0 0 1 525.1058 241.1221)" class="st16 st7 st14">HelpMe</text>
	</g>
	<g class="st1">
		<path class="st5" d="M663,681c0,45.2-27.2,84-66.2,101c0,0,0,0-0.1,0c-10.7,4.6-22.2,7.6-34.3,8.7c-3.1,0.3-6.3,0.4-9.5,0.4
			c-3.2,0-6.4-0.1-9.5-0.4c-10.3-0.9-20.3-3.2-29.6-6.7c-2.1-0.8-4.1-1.6-6.1-2.5c-8.4-3.8-16.2-8.6-23.3-14.2
			c-25.3-20.2-41.6-51.3-41.6-86.2c0-60.8,49.3-110,110-110C613.8,570.9,663,620.2,663,681z"/>
		<g>
			<g>
				<path class="st16" d="M587.4,689.1c0.1,19.8-14.1,34.6-33.1,34.4c-19.1-0.2-33.1-14.9-33-34.6c0.1-19.9,14.1-34.3,33.2-34.3
					C573.6,654.6,587.3,669,587.4,689.1z"/>
			</g>
			<path class="st16" d="M631.3,729.9c-6.8,8.8-14.1,17.7-22.8,24.6c-7.5,5.9-11.6,17.2-13,27.5c0,0,0,0-0.1,0
				c-10.7,4.6-22.2,7.6-34.3,8.7c-3.1,0.3-6.3,0.4-9.5,0.4c-3.2,0-6.4-0.1-9.5-0.4c-10.3-0.9-20.3-3.2-29.6-6.7v-14.7
				c-2.6,4.3-4.7,8.4-6.1,12.2c-8.4-3.8-16.2-8.6-23.3-14.2c2.5-6,6-11.8,10.4-17.2c8.6-10.6,19.6-16.9,33.6-16.9
				c15.2,0,30.5,0,45.7,0c28.3,0,51.6-27.5,47-55.6c-0.2-1.3-0.6-2.6-0.9-3.9c-2.1-9.2,2-15.3,10.5-17.3c9.6-2.3,14.4,4.4,15.6,12.6
				C648.3,690.8,645.2,711.8,631.3,729.9z"/>
		</g>
		<text transform="matrix(1 0 0 1 535.3537 643.0568)" class="st16 st7 st8">?</text>
		<text transform="matrix(0.7071 -0.7071 0.7071 0.7071 514.2512 653.825)" class="st16 st7 st9">?</text>
		<text transform="matrix(0.7071 0.7071 -0.7071 0.7071 580.1276 640.9999)" class="st16 st7 st10">?</text>
		<text transform="matrix(0.8124 0.583 -0.583 0.8124 565.3693 617.3788)" class="st6 st7 st18">?</text>
		<text transform="matrix(0.8125 -0.583 0.583 0.8125 522.0051 631.4767)" class="st6 st7 st18">?</text>
		<text transform="matrix(1 0 0 1 521.2746 770.1893)" class="st6 st7 st14">HelpMe</text>
		<path class="st19" d="M663,681c0,45.2-27.2,84-66.2,101c0,0,0,0-0.1,0c-10.7,4.6-22.2,7.6-34.3,8.7c-3.1,0.3-6.3,0.4-9.5,0.4
			c-3.2,0-6.4-0.1-9.5-0.4c-10.3-0.9-20.3-3.2-29.6-6.7c-2.1-0.8-4.1-1.6-6.1-2.5c-8.4-3.8-16.2-8.6-23.3-14.2
			c-25.3-20.2-41.6-51.3-41.6-86.2c0-60.8,49.3-110,110-110C613.8,570.9,663,620.2,663,681z"/>
	</g>
</g>
<g id="Layer_5" class="st0">
	<g class="st1">
		<path class="st5" d="M356.6,127.3c0,45.2-27.2,84-66.2,101c0,0,0,0-0.1,0c-10.7,4.6-22.2,7.6-34.3,8.7c-3.1,0.3-6.3,0.4-9.5,0.4
			s-6.4-0.1-9.5-0.4c-10.3-0.9-20.3-3.2-29.6-6.7c-2.1-0.8-4.1-1.6-6.1-2.5c-8.4-3.8-16.2-8.6-23.3-14.2
			c-25.3-20.2-41.6-51.3-41.6-86.2c0-60.8,49.3-110,110-110S356.6,66.6,356.6,127.3z"/>
		<g>
			<g>
				<path class="st6" d="M282.3,135.5c0.1,19.8-14.1,34.6-33.1,34.4c-19.1-0.2-33.1-14.9-33-34.6c0.1-19.9,14.1-34.3,33.2-34.3
					C268.5,101,282.2,115.3,282.3,135.5z"/>
			</g>
			<path class="st6" d="M326.2,176.3c-6.8,8.8-14.1,17.7-22.8,24.6c-7.5,5.9-11.6,17.2-13,27.5c0,0,0,0-0.1,0
				c-10.7,4.6-22.2,7.6-34.3,8.7c-3.1,0.3-6.3,0.4-9.5,0.4s-6.4-0.1-9.5-0.4c-10.3-0.9-20.3-3.2-29.6-6.7v-14.7
				c-2.6,4.3-4.7,8.4-6.1,12.2c-8.4-3.8-16.2-8.6-23.3-14.2c2.5-6,6-11.8,10.4-17.2c8.6-10.6,19.6-16.9,33.6-16.9
				c15.2,0,30.5,0,45.7,0c28.3,0,51.6-27.5,47-55.6c-0.2-1.3-0.6-2.6-0.9-3.9c-2.1-9.2,2-15.3,10.5-17.3c9.6-2.3,14.4,4.4,15.6,12.6
				C343.2,137.1,340.1,158.2,326.2,176.3z"/>
		</g>
		<text transform="matrix(1 0 0 1 230.2383 89.4002)" class="st6 st7 st8">?</text>
		<text transform="matrix(0.7071 -0.7071 0.7071 0.7071 209.1358 100.1684)" class="st6 st7 st9">?</text>
		<text transform="matrix(0.7071 0.7071 -0.7071 0.7071 275.0121 87.3433)" class="st6 st7 st10">?</text>
		<text transform="matrix(0.8124 0.583 -0.583 0.8124 260.2539 63.7222)" class="st6 st7 st11">?</text>
		<text transform="matrix(0.8125 -0.583 0.583 0.8125 216.8897 77.8201)" class="st6 st7 st12">?</text>
		<text transform="matrix(1 0 0 1 216.1592 216.5327)" class="st16 st7 st14">HelpMe</text>
		<path class="st15" d="M617.6,366.6c0,45.2-27.2,84-66.2,101c0,0,0,0-0.1,0c-10.7,4.6-22.2,7.6-34.3,8.7c-3.1,0.3-6.3,0.4-9.5,0.4
			s-6.4-0.1-9.5-0.4c-10.3-0.9-20.3-3.2-29.6-6.7c-2.1-0.8-4.1-1.6-6.1-2.5c-8.4-3.8-16.2-8.6-23.3-14.2
			c-25.3-20.2-41.6-51.3-41.6-86.2c0-60.8,49.3-110,110-110S617.6,305.8,617.6,366.6z"/>
		<g>
			<g>
				<path class="st13" d="M543.3,374.7c0.1,19.8-14.1,34.6-33.1,34.4c-19.1-0.2-33.1-14.9-33-34.6c0.1-19.9,14.1-34.3,33.2-34.3
					C529.5,340.2,543.2,354.5,543.3,374.7z"/>
			</g>
			<path class="st13" d="M587.2,415.5c-6.8,8.8-14.1,17.7-22.8,24.6c-7.5,5.9-11.6,17.2-13,27.5c0,0,0,0-0.1,0
				c-10.7,4.6-22.2,7.6-34.3,8.7c-3.1,0.3-6.3,0.4-9.5,0.4s-6.4-0.1-9.5-0.4c-10.3-0.9-20.3-3.2-29.6-6.7v-14.7
				c-2.6,4.3-4.7,8.4-6.1,12.2c-8.4-3.8-16.2-8.6-23.3-14.2c2.5-6,6-11.8,10.4-17.2c8.6-10.6,19.6-16.9,33.6-16.9
				c15.2,0,30.5,0,45.7,0c28.3,0,51.6-27.5,47-55.6c-0.2-1.3-0.6-2.6-0.9-3.9c-2.1-9.2,2-15.3,10.5-17.3c9.6-2.3,14.4,4.4,15.6,12.6
				C604.2,376.4,601.1,397.4,587.2,415.5z"/>
		</g>
		<text transform="matrix(1 0 0 1 491.2383 328.6176)" class="st13 st7 st8">?</text>
		<text transform="matrix(0.7071 -0.7071 0.7071 0.7071 470.1358 339.3858)" class="st13 st7 st9">?</text>
		<text transform="matrix(0.7071 0.7071 -0.7071 0.7071 536.0121 326.5607)" class="st13 st7 st10">?</text>
		<text transform="matrix(0.8124 0.583 -0.583 0.8124 521.2538 302.9396)" class="st13 st7 st11">?</text>
		<text transform="matrix(0.8125 -0.583 0.583 0.8125 477.8897 317.0375)" class="st13 st7 st12">?</text>
		<text transform="matrix(1 0 0 1 477.1592 455.7501)" class="st6 st7 st14">HelpMe</text>
		<g>
			<linearGradient id="SVGID_1_" gradientUnits="userSpaceOnUse" x1="765.9424" y1="721.2812" x2="765.9424" y2="501.1819">
				<stop  offset="0" style="stop-color:#F46A1F"/>
				<stop  offset="1" style="stop-color:#FFFFFF"/>
			</linearGradient>
			<path class="st20" d="M876,611.2c0,45.2-27.2,84-66.2,101c0,0,0,0-0.1,0c-10.7,4.6-22.2,7.6-34.3,8.7c-3.1,0.3-6.3,0.4-9.5,0.4
				c-3.2,0-6.4-0.1-9.5-0.4c-10.3-0.9-20.3-3.2-29.6-6.7c-2.1-0.8-4.1-1.6-6.1-2.5c-8.4-3.8-16.2-8.6-23.3-14.2
				c-25.3-20.2-41.6-51.3-41.6-86.2c0-60.8,49.3-110,110-110S876,550.5,876,611.2z"/>
			<path class="st13" d="M765.9,724.3c-3.3,0-6.5-0.1-9.8-0.4c-10.4-0.9-20.7-3.2-30.4-6.9c-2.1-0.8-4.2-1.7-6.3-2.6
				c-8.5-3.8-16.6-8.8-23.9-14.6c-27.1-21.6-42.7-53.9-42.7-88.5c0-62.3,50.7-113,113-113c62.3,0,113,50.7,113,113
				c0,45-26.7,85.7-68,103.7c-11.2,4.9-23.1,7.9-35.3,8.9C772.5,724.1,769.2,724.3,765.9,724.3z M765.9,504.2c-59,0-107,48-107,107
				c0,32.8,14.7,63.4,40.4,83.8c6.9,5.5,14.6,10.2,22.6,13.8c1.9,0.9,3.9,1.7,5.9,2.5c9.2,3.5,18.9,5.7,28.8,6.6
				c6.1,0.5,12.4,0.5,18.5,0c11.5-1,22.8-3.8,33.4-8.4c39.2-17,64.4-55.6,64.4-98.2C873,552.2,825,504.2,765.9,504.2z"/>
			<g>
				<g>
					<path class="st16" d="M801.7,619.4c0.1,19.8-14.1,34.6-33.1,34.4c-19.1-0.2-33.1-14.9-33-34.6c0.1-19.9,14.1-34.3,33.2-34.3
						C787.9,584.9,801.6,599.2,801.7,619.4z"/>
				</g>
				<path class="st16" d="M845.6,660.1c-6.8,8.8-14.1,17.7-22.8,24.6c-7.5,5.9-11.6,17.2-13,27.5c0,0,0,0-0.1,0
					c-10.7,4.6-22.2,7.6-34.3,8.7c-3.1,0.3-6.3,0.4-9.5,0.4c-3.2,0-6.4-0.1-9.5-0.4c-10.3-0.9-20.3-3.2-29.6-6.7v-14.7
					c-2.6,4.3-4.7,8.4-6.1,12.2c-8.4-3.8-16.2-8.6-23.3-14.2c2.5-6,6-11.8,10.4-17.2c8.6-10.6,19.6-16.9,33.6-16.9
					c15.2,0,30.5,0,45.7,0c28.3,0,51.6-27.5,47-55.6c-0.2-1.3-0.6-2.6-0.9-3.9c-2.1-9.2,2-15.3,10.5-17.3
					c9.6-2.3,14.4,4.4,15.6,12.6C862.6,621,859.5,642.1,845.6,660.1z"/>
			</g>
			<text transform="matrix(1 0 0 1 749.631 573.2927)" class="st6 st7 st8">?</text>
			<text transform="matrix(0.7071 -0.7071 0.7071 0.7071 728.5286 584.0609)" class="st6 st7 st9">?</text>
			<text transform="matrix(0.7071 0.7071 -0.7071 0.7071 794.4049 571.2357)" class="st6 st7 st10">?</text>
			<text transform="matrix(0.8124 0.583 -0.583 0.8124 779.6466 547.6147)" class="st6 st7 st11">?</text>
			<text transform="matrix(0.8125 -0.583 0.583 0.8125 736.2825 561.7125)" class="st6 st7 st12">?</text>
			<path class="st13" d="M765.9,724.3c-3.3,0-6.5-0.1-9.8-0.4c-10.4-0.9-20.7-3.2-30.4-6.9c-2.1-0.8-4.2-1.7-6.3-2.6
				c-8.5-3.8-16.6-8.8-23.9-14.6c-27.1-21.6-42.7-53.9-42.7-88.5c0-62.3,50.7-113,113-113c62.3,0,113,50.7,113,113
				c0,45-26.7,85.7-68,103.7c-11.2,4.9-23.1,7.9-35.3,8.9C772.5,724.1,769.2,724.3,765.9,724.3z M765.9,504.2c-59,0-107,48-107,107
				c0,32.8,14.7,63.4,40.4,83.8c6.9,5.5,14.6,10.2,22.6,13.8c1.9,0.9,3.9,1.7,5.9,2.5c9.2,3.5,18.9,5.7,28.8,6.6
				c6.1,0.5,12.4,0.5,18.5,0c11.5-1,22.8-3.8,33.4-8.4c39.2-17,64.4-55.6,64.4-98.2C873,552.2,825,504.2,765.9,504.2z"/>
		</g>
		<g>
			<linearGradient id="SVGID_2_" gradientUnits="userSpaceOnUse" x1="1005.098" y1="484.6952" x2="1005.098" y2="264.5959">
				<stop  offset="0" style="stop-color:#002244"/>
				<stop  offset="1" style="stop-color:#FFFFFF"/>
			</linearGradient>
			<path class="st21" d="M1115.1,374.6c0,45.2-27.2,84-66.2,101c0,0,0,0-0.1,0c-10.7,4.6-22.2,7.6-34.3,8.7
				c-3.1,0.3-6.3,0.4-9.5,0.4c-3.2,0-6.4-0.1-9.5-0.4c-10.3-0.9-20.3-3.2-29.6-6.7c-2.1-0.8-4.1-1.6-6.1-2.5
				c-8.4-3.8-16.2-8.6-23.3-14.2c-25.3-20.2-41.6-51.3-41.6-86.2c0-60.8,49.3-110,110-110C1065.9,264.6,1115.1,313.9,1115.1,374.6z"
				/>
			<path class="st6" d="M1005.1,487.7c-3.3,0-6.5-0.1-9.8-0.4c-10.4-0.9-20.7-3.2-30.4-6.9c-2.1-0.8-4.2-1.7-6.3-2.6
				c-8.5-3.8-16.6-8.8-23.9-14.6c-27.1-21.6-42.7-53.9-42.7-88.5c0-62.3,50.7-113,113-113c62.3,0,113,50.7,113,113
				c0,45-26.7,85.7-68,103.7c-11.2,4.9-23.1,7.9-35.3,8.9C1011.6,487.6,1008.3,487.7,1005.1,487.7z M1005.1,267.6
				c-59,0-107,48-107,107c0,32.8,14.7,63.4,40.4,83.8c6.9,5.5,14.6,10.2,22.6,13.8c1.9,0.9,3.9,1.7,5.9,2.5
				c9.2,3.5,18.9,5.7,28.8,6.6c6.1,0.5,12.4,0.5,18.5,0c11.5-1,22.8-3.8,33.4-8.4c39.2-17,64.4-55.6,64.4-98.2
				C1112.1,315.6,1064.1,267.6,1005.1,267.6z"/>
			<g>
				<g>
					<path class="st16" d="M1040.8,382.8c0.1,19.8-14.1,34.6-33.1,34.4c-19.1-0.2-33.1-14.9-33-34.6c0.1-19.9,14.1-34.3,33.2-34.3
						C1027.1,348.3,1040.8,362.6,1040.8,382.8z"/>
				</g>
				<path class="st16" d="M1084.8,423.6c-6.8,8.8-14.1,17.7-22.8,24.6c-7.5,5.9-11.6,17.2-13,27.5c0,0,0,0-0.1,0
					c-10.7,4.6-22.2,7.6-34.3,8.7c-3.1,0.3-6.3,0.4-9.5,0.4c-3.2,0-6.4-0.1-9.5-0.4c-10.3-0.9-20.3-3.2-29.6-6.7v-14.7
					c-2.6,4.3-4.7,8.4-6.1,12.2c-8.4-3.8-16.2-8.6-23.3-14.2c2.5-6,6-11.8,10.4-17.2c8.6-10.6,19.6-16.9,33.6-16.9
					c15.2,0,30.5,0,45.7,0c28.3,0,51.6-27.5,47-55.6c-0.2-1.3-0.6-2.6-0.9-3.9c-2.1-9.2,2-15.3,10.5-17.3
					c9.6-2.3,14.4,4.4,15.6,12.6C1101.8,384.5,1098.6,405.5,1084.8,423.6z"/>
			</g>
			<text transform="matrix(1 0 0 1 988.7866 336.7067)" class="st6 st7 st8">?</text>
			<text transform="matrix(0.7071 -0.7071 0.7071 0.7071 967.6841 347.4749)" class="st6 st7 st9">?</text>
			<text transform="matrix(0.7071 0.7071 -0.7071 0.7071 1033.5604 334.6497)" class="st6 st7 st10">?</text>
			<text transform="matrix(0.8124 0.583 -0.583 0.8124 1018.8021 311.0287)" class="st6 st7 st11">?</text>
			<text transform="matrix(0.8125 -0.583 0.583 0.8125 975.438 325.1266)" class="st6 st7 st12">?</text>
			<path class="st6" d="M1005.1,487.7c-3.3,0-6.5-0.1-9.8-0.4c-10.4-0.9-20.7-3.2-30.4-6.9c-2.1-0.8-4.2-1.7-6.3-2.6
				c-8.5-3.8-16.6-8.8-23.9-14.6c-27.1-21.6-42.7-53.9-42.7-88.5c0-62.3,50.7-113,113-113c62.3,0,113,50.7,113,113
				c0,45-26.7,85.7-68,103.7c-11.2,4.9-23.1,7.9-35.3,8.9C1011.6,487.6,1008.3,487.7,1005.1,487.7z M1005.1,267.6
				c-59,0-107,48-107,107c0,32.8,14.7,63.4,40.4,83.8c6.9,5.5,14.6,10.2,22.6,13.8c1.9,0.9,3.9,1.7,5.9,2.5
				c9.2,3.5,18.9,5.7,28.8,6.6c6.1,0.5,12.4,0.5,18.5,0c11.5-1,22.8-3.8,33.4-8.4c39.2-17,64.4-55.6,64.4-98.2
				C1112.1,315.6,1064.1,267.6,1005.1,267.6z"/>
		</g>
		<linearGradient id="SVGID_3_" gradientUnits="userSpaceOnUse" x1="246.5497" y1="961.2531" x2="246.5497" y2="741.1537">
			<stop  offset="0" style="stop-color:#002244"/>
			<stop  offset="1" style="stop-color:#F46A1F"/>
		</linearGradient>
		<path class="st22" d="M356.6,851.2c0,45.2-27.2,84-66.2,101c0,0,0,0-0.1,0c-10.7,4.6-22.2,7.6-34.3,8.7c-3.1,0.3-6.3,0.4-9.5,0.4
			c-3.2,0-6.4-0.1-9.5-0.4c-10.3-0.9-20.3-3.2-29.6-6.7c-2.1-0.8-4.1-1.6-6.1-2.5c-8.4-3.8-16.2-8.6-23.3-14.2
			c-25.3-20.2-41.6-51.3-41.6-86.2c0-60.8,49.3-110,110-110S356.6,790.4,356.6,851.2z"/>
		<path class="st6" d="M246.6,964.3c-3.3,0-6.5-0.1-9.8-0.4c-10.4-0.9-20.7-3.2-30.4-6.9c-2.1-0.8-4.2-1.7-6.3-2.6
			c-8.5-3.8-16.6-8.8-23.9-14.6c-27.1-21.6-42.7-53.9-42.7-88.5c0-62.3,50.7-113,113-113c62.3,0,113,50.7,113,113
			c0,45-26.7,85.7-68,103.7c-11.2,4.9-23.1,7.9-35.3,8.9C253.1,964.1,249.8,964.3,246.6,964.3z M246.6,744.2c-59,0-107,48-107,107
			c0,32.8,14.7,63.4,40.4,83.8c6.9,5.5,14.6,10.2,22.6,13.8c1.9,0.9,3.9,1.7,5.9,2.5c9.2,3.5,18.9,5.7,28.8,6.6
			c6.1,0.5,12.4,0.5,18.5,0c11.5-1,22.8-3.8,33.4-8.4c39.2-17,64.4-55.6,64.4-98.2C353.6,792.2,305.6,744.2,246.6,744.2z"/>
		<g>
			<g>
				<path class="st16" d="M282.3,859.4c0.1,19.8-14.1,34.6-33.1,34.4c-19.1-0.2-33.1-14.9-33-34.6c0.1-19.9,14.1-34.3,33.2-34.3
					C268.5,824.8,282.2,839.2,282.3,859.4z"/>
			</g>
			<path class="st16" d="M326.2,900.1c-6.8,8.8-14.1,17.7-22.8,24.6c-7.5,5.9-11.6,17.2-13,27.5c0,0,0,0-0.1,0
				c-10.7,4.6-22.2,7.6-34.3,8.7c-3.1,0.3-6.3,0.4-9.5,0.4c-3.2,0-6.4-0.1-9.5-0.4c-10.3-0.9-20.3-3.2-29.6-6.7v-14.7
				c-2.6,4.3-4.7,8.4-6.1,12.2c-8.4-3.8-16.2-8.6-23.3-14.2c2.5-6,6-11.8,10.4-17.2c8.6-10.6,19.6-16.9,33.6-16.9
				c15.2,0,30.5,0,45.7,0c28.3,0,51.6-27.5,47-55.6c-0.2-1.3-0.6-2.6-0.9-3.9c-2.1-9.2,2-15.3,10.5-17.3c9.6-2.3,14.4,4.4,15.6,12.6
				C343.2,861,340.1,882,326.2,900.1z"/>
		</g>
		<text transform="matrix(1 0 0 1 230.2383 813.2645)" class="st6 st7 st8">?</text>
		<text transform="matrix(0.7071 -0.7071 0.7071 0.7071 209.1358 824.0327)" class="st6 st7 st9">?</text>
		<text transform="matrix(0.7071 0.7071 -0.7071 0.7071 275.0121 811.2076)" class="st6 st7 st10">?</text>
		<text transform="matrix(0.8124 0.583 -0.583 0.8124 260.2538 787.5865)" class="st6 st7 st11">?</text>
		<text transform="matrix(0.8125 -0.583 0.583 0.8125 216.8897 801.6844)" class="st6 st7 st12">?</text>
		<path class="st6" d="M246.6,964.3c-3.3,0-6.5-0.1-9.8-0.4c-10.4-0.9-20.7-3.2-30.4-6.9c-2.1-0.8-4.2-1.7-6.3-2.6
			c-8.5-3.8-16.6-8.8-23.9-14.6c-27.1-21.6-42.7-53.9-42.7-88.5c0-62.3,50.7-113,113-113c62.3,0,113,50.7,113,113
			c0,45-26.7,85.7-68,103.7c-11.2,4.9-23.1,7.9-35.3,8.9C253.1,964.1,249.8,964.3,246.6,964.3z M246.6,744.2c-59,0-107,48-107,107
			c0,32.8,14.7,63.4,40.4,83.8c6.9,5.5,14.6,10.2,22.6,13.8c1.9,0.9,3.9,1.7,5.9,2.5c9.2,3.5,18.9,5.7,28.8,6.6
			c6.1,0.5,12.4,0.5,18.5,0c11.5-1,22.8-3.8,33.4-8.4c39.2-17,64.4-55.6,64.4-98.2C353.6,792.2,305.6,744.2,246.6,744.2z"/>
		<g>
			<linearGradient id="SVGID_4_" gradientUnits="userSpaceOnUse" x1="750.2764" y1="245.4778" x2="750.2764" y2="25.3784">
				<stop  offset="0" style="stop-color:#F46A1F"/>
				<stop  offset="1" style="stop-color:#FFFFFF"/>
			</linearGradient>
			<path class="st23" d="M860.3,135.4c0,45.2-27.2,84-66.2,101c0,0,0,0-0.1,0c-10.7,4.6-22.2,7.6-34.3,8.7c-3.1,0.3-6.3,0.4-9.5,0.4
				c-3.2,0-6.4-0.1-9.5-0.4c-10.3-0.9-20.3-3.2-29.6-6.7c-2.1-0.8-4.1-1.6-6.1-2.5c-8.4-3.8-16.2-8.6-23.3-14.2
				c-25.3-20.2-41.6-51.3-41.6-86.2c0-60.8,49.3-110,110-110C811.1,25.4,860.3,74.6,860.3,135.4z"/>
			<path class="st13" d="M750.3,248.5c-3.3,0-6.5-0.1-9.8-0.4c-10.4-0.9-20.7-3.2-30.4-6.9c-2.1-0.8-4.2-1.7-6.3-2.6
				c-8.5-3.8-16.6-8.8-23.9-14.6c-27.1-21.6-42.7-53.9-42.7-88.5c0-62.3,50.7-113,113-113c62.3,0,113,50.7,113,113
				c0,45-26.7,85.7-68,103.7c-11.2,4.9-23.1,7.9-35.3,8.9C756.8,248.3,753.5,248.5,750.3,248.5z M750.3,28.4c-59,0-107,48-107,107
				c0,32.8,14.7,63.4,40.4,83.8c6.9,5.5,14.6,10.2,22.6,13.8c1.9,0.9,3.9,1.7,5.9,2.5c9.2,3.5,18.9,5.7,28.8,6.6
				c6.1,0.5,12.4,0.5,18.5,0c11.5-1,22.8-3.8,33.4-8.4c39.2-17,64.4-55.6,64.4-98.2C857.3,76.4,809.3,28.4,750.3,28.4z"/>
			<g>
				<g>
					<path class="st16" d="M786,143.6c0.1,19.8-14.1,34.6-33.1,34.4c-19.1-0.2-33.1-14.9-33-34.6c0.1-19.9,14.1-34.3,33.2-34.3
						C772.2,109.1,785.9,123.4,786,143.6z"/>
				</g>
				<path class="st16" d="M829.9,184.3c-6.8,8.8-14.1,17.7-22.8,24.6c-7.5,5.9-11.6,17.2-13,27.5c0,0,0,0-0.1,0
					c-10.7,4.6-22.2,7.6-34.3,8.7c-3.1,0.3-6.3,0.4-9.5,0.4c-3.2,0-6.4-0.1-9.5-0.4c-10.3-0.9-20.3-3.2-29.6-6.7v-14.7
					c-2.6,4.3-4.7,8.4-6.1,12.2c-8.4-3.8-16.2-8.6-23.3-14.2c2.5-6,6-11.8,10.4-17.2c8.6-10.6,19.6-16.9,33.6-16.9
					c15.2,0,30.5,0,45.7,0c28.3,0,51.6-27.5,47-55.6c-0.2-1.3-0.6-2.6-0.9-3.9c-2.1-9.2,2-15.3,10.5-17.3
					c9.6-2.3,14.4,4.4,15.6,12.6C847,145.2,843.8,166.3,829.9,184.3z"/>
			</g>
			<text transform="matrix(1 0 0 1 733.965 97.4893)" class="st13 st7 st8">?</text>
			<text transform="matrix(0.7071 -0.7071 0.7071 0.7071 712.8625 108.2575)" class="st13 st7 st9">?</text>
			<text transform="matrix(0.7071 0.7071 -0.7071 0.7071 778.7388 95.4324)" class="st13 st7 st10">?</text>
			<text transform="matrix(0.8124 0.583 -0.583 0.8124 763.9805 71.8113)" class="st13 st7 st11">?</text>
			<text transform="matrix(0.8125 -0.583 0.583 0.8125 720.6164 85.9092)" class="st13 st7 st12">?</text>
			<path class="st13" d="M750.3,248.5c-3.3,0-6.5-0.1-9.8-0.4c-10.4-0.9-20.7-3.2-30.4-6.9c-2.1-0.8-4.2-1.7-6.3-2.6
				c-8.5-3.8-16.6-8.8-23.9-14.6c-27.1-21.6-42.7-53.9-42.7-88.5c0-62.3,50.7-113,113-113c62.3,0,113,50.7,113,113
				c0,45-26.7,85.7-68,103.7c-11.2,4.9-23.1,7.9-35.3,8.9C756.8,248.3,753.5,248.5,750.3,248.5z M750.3,28.4c-59,0-107,48-107,107
				c0,32.8,14.7,63.4,40.4,83.8c6.9,5.5,14.6,10.2,22.6,13.8c1.9,0.9,3.9,1.7,5.9,2.5c9.2,3.5,18.9,5.7,28.8,6.6
				c6.1,0.5,12.4,0.5,18.5,0c11.5-1,22.8-3.8,33.4-8.4c39.2-17,64.4-55.6,64.4-98.2C857.3,76.4,809.3,28.4,750.3,28.4z"/>
			<g>
				<text transform="matrix(1 0 0 1 717.6411 223.3721)" class="st13 st24 st25">HelpMe</text>
			</g>
		</g>
		<text transform="matrix(1 0 0 1 213.9269 944.6703)" class="st6 st25" style="font-family:'BerninaSans-Condensed';">HelpMe</text>
		<g>
			<linearGradient id="SVGID_5_" gradientUnits="userSpaceOnUse" x1="992.0411" y1="245.4778" x2="992.0411" y2="25.3785">
				<stop  offset="0" style="stop-color:#002244"/>
				<stop  offset="1" style="stop-color:#FFFFFF"/>
			</linearGradient>
			<path class="st26" d="M1102.1,135.4c0,45.2-27.2,84-66.2,101c0,0,0,0-0.1,0c-10.7,4.6-22.2,7.6-34.3,8.7
				c-3.1,0.3-6.3,0.4-9.5,0.4c-3.2,0-6.4-0.1-9.5-0.4c-10.3-0.9-20.3-3.2-29.6-6.7c-2.1-0.8-4.1-1.6-6.1-2.5
				c-8.4-3.8-16.2-8.6-23.3-14.2c-25.3-20.2-41.6-51.3-41.6-86.2c0-60.8,49.3-110,110-110C1052.8,25.4,1102.1,74.6,1102.1,135.4z"/>
			<path class="st6" d="M992,248.5c-3.3,0-6.5-0.1-9.8-0.4c-10.4-0.9-20.7-3.2-30.4-6.9c-2.1-0.8-4.2-1.7-6.3-2.6
				c-8.5-3.8-16.6-8.8-23.9-14.6c-27.1-21.6-42.7-53.9-42.7-88.5c0-62.3,50.7-113,113-113c62.3,0,113,50.7,113,113
				c0,45-26.7,85.7-68,103.7c-11.2,4.9-23.1,7.9-35.3,8.9C998.6,248.3,995.3,248.5,992,248.5z M992,28.4c-59,0-107,48-107,107
				c0,32.8,14.7,63.4,40.4,83.8c6.9,5.5,14.6,10.2,22.6,13.8c1.9,0.9,3.9,1.7,5.9,2.5c9.2,3.5,18.9,5.7,28.8,6.6
				c6.1,0.5,12.4,0.5,18.5,0c11.5-1,22.8-3.8,33.4-8.4c39.2-17,64.4-55.6,64.4-98.2C1099.1,76.4,1051.1,28.4,992,28.4z"/>
			<g>
				<g>
					<path class="st16" d="M1027.8,143.6c0.1,19.8-14.1,34.6-33.1,34.4c-19.1-0.2-33.1-14.9-33-34.6c0.1-19.9,14.1-34.3,33.2-34.3
						C1014,109.1,1027.7,123.4,1027.8,143.6z"/>
				</g>
				<path class="st16" d="M1071.7,184.3c-6.8,8.8-14.1,17.7-22.8,24.6c-7.5,5.9-11.6,17.2-13,27.5c0,0,0,0-0.1,0
					c-10.7,4.6-22.2,7.6-34.3,8.7c-3.1,0.3-6.3,0.4-9.5,0.4c-3.2,0-6.4-0.1-9.5-0.4c-10.3-0.9-20.3-3.2-29.6-6.7v-14.7
					c-2.6,4.3-4.7,8.4-6.1,12.2c-8.4-3.8-16.2-8.6-23.3-14.2c2.5-6,6-11.8,10.4-17.2c8.6-10.6,19.6-16.9,33.6-16.9
					c15.2,0,30.5,0,45.7,0c28.3,0,51.6-27.5,47-55.6c-0.2-1.3-0.6-2.6-0.9-3.9c-2.1-9.2,2-15.3,10.5-17.3
					c9.6-2.3,14.4,4.4,15.6,12.6C1088.7,145.2,1085.6,166.3,1071.7,184.3z"/>
			</g>
			<text transform="matrix(1 0 0 1 975.7297 97.4893)" class="st13 st7 st8">?</text>
			<text transform="matrix(0.7071 -0.7071 0.7071 0.7071 954.6273 108.2575)" class="st13 st7 st9">?</text>
			<text transform="matrix(0.7071 0.7071 -0.7071 0.7071 1020.5036 95.4324)" class="st13 st7 st10">?</text>
			<text transform="matrix(0.8124 0.583 -0.583 0.8124 1005.7453 71.8113)" class="st13 st7 st11">?</text>
			<text transform="matrix(0.8125 -0.583 0.583 0.8125 962.3812 85.9092)" class="st13 st7 st12">?</text>
			<path class="st6" d="M992,248.5c-3.3,0-6.5-0.1-9.8-0.4c-10.4-0.9-20.7-3.2-30.4-6.9c-2.1-0.8-4.2-1.7-6.3-2.6
				c-8.5-3.8-16.6-8.8-23.9-14.6c-27.1-21.6-42.7-53.9-42.7-88.5c0-62.3,50.7-113,113-113c62.3,0,113,50.7,113,113
				c0,45-26.7,85.7-68,103.7c-11.2,4.9-23.1,7.9-35.3,8.9C998.6,248.3,995.3,248.5,992,248.5z M992,28.4c-59,0-107,48-107,107
				c0,32.8,14.7,63.4,40.4,83.8c6.9,5.5,14.6,10.2,22.6,13.8c1.9,0.9,3.9,1.7,5.9,2.5c9.2,3.5,18.9,5.7,28.8,6.6
				c6.1,0.5,12.4,0.5,18.5,0c11.5-1,22.8-3.8,33.4-8.4c39.2-17,64.4-55.6,64.4-98.2C1099.1,76.4,1051.1,28.4,992,28.4z"/>
			<g>
				<text transform="matrix(1 0 0 1 962.7284 219.3768)"><tspan x="0" y="0" class="st13" style="font-family:'AzoSansUber-Regular'; font-size:16.528px;">Help</tspan><tspan x="32.4" y="0" class="st6" style="font-family:'AzoSansUber-Regular'; font-size:16.528px;">Me</tspan></text>
			</g>
		</g>
		<g>
			<linearGradient id="SVGID_6_" gradientUnits="userSpaceOnUse" x1="763.2776" y1="484.6952" x2="763.2776" y2="264.5958">
				<stop  offset="0" style="stop-color:#F46A1F"/>
				<stop  offset="1" style="stop-color:#FFFFFF"/>
			</linearGradient>
			<path class="st27" d="M873.3,374.6c0,45.2-27.2,84-66.2,101c0,0,0,0-0.1,0c-10.7,4.6-22.2,7.6-34.3,8.7c-3.1,0.3-6.3,0.4-9.5,0.4
				c-3.2,0-6.4-0.1-9.5-0.4c-10.3-0.9-20.3-3.2-29.6-6.7c-2.1-0.8-4.1-1.6-6.1-2.5c-8.4-3.8-16.2-8.6-23.3-14.2
				c-25.3-20.2-41.6-51.3-41.6-86.2c0-60.8,49.3-110,110-110C824.1,264.6,873.3,313.9,873.3,374.6z"/>
			<path class="st6" d="M763.3,487.7c-3.3,0-6.5-0.1-9.8-0.4c-10.4-0.9-20.7-3.2-30.4-6.9c-2.1-0.8-4.2-1.7-6.3-2.6
				c-8.5-3.8-16.6-8.8-23.9-14.6c-27.1-21.6-42.7-53.9-42.7-88.5c0-62.3,50.7-113,113-113c62.3,0,113,50.7,113,113
				c0,45-26.7,85.7-68,103.7c-11.2,4.9-23.1,7.9-35.3,8.9C769.8,487.6,766.5,487.7,763.3,487.7z M763.3,267.6c-59,0-107,48-107,107
				c0,32.8,14.7,63.4,40.4,83.8c6.9,5.5,14.6,10.2,22.6,13.8c1.9,0.9,3.9,1.7,5.9,2.5c9.2,3.5,18.9,5.7,28.8,6.6
				c6.1,0.5,12.4,0.5,18.5,0c11.5-1,22.8-3.8,33.4-8.4c39.2-17,64.4-55.6,64.4-98.2C870.3,315.6,822.3,267.6,763.3,267.6z"/>
			<g>
				<g>
					<path class="st16" d="M799,382.8c0.1,19.8-14.1,34.6-33.1,34.4c-19.1-0.2-33.1-14.9-33-34.6c0.1-19.9,14.1-34.3,33.2-34.3
						C785.3,348.3,798.9,362.6,799,382.8z"/>
				</g>
				<path class="st16" d="M842.9,423.6c-6.8,8.8-14.1,17.7-22.8,24.6c-7.5,5.9-11.6,17.2-13,27.5c0,0,0,0-0.1,0
					c-10.7,4.6-22.2,7.6-34.3,8.7c-3.1,0.3-6.3,0.4-9.5,0.4c-3.2,0-6.4-0.1-9.5-0.4c-10.3-0.9-20.3-3.2-29.6-6.7v-14.7
					c-2.6,4.3-4.7,8.4-6.1,12.2c-8.4-3.8-16.2-8.6-23.3-14.2c2.5-6,6-11.8,10.4-17.2c8.6-10.6,19.6-16.9,33.6-16.9
					c15.2,0,30.5,0,45.7,0c28.3,0,51.6-27.5,47-55.6c-0.2-1.3-0.6-2.6-0.9-3.9c-2.1-9.2,2-15.3,10.5-17.3
					c9.6-2.3,14.4,4.4,15.6,12.6C860,384.5,856.8,405.5,842.9,423.6z"/>
			</g>
			<text transform="matrix(1 0 0 1 746.9662 336.7067)" class="st6 st7 st8">?</text>
			<text transform="matrix(0.7071 -0.7071 0.7071 0.7071 725.8638 347.4749)" class="st6 st7 st9">?</text>
			<text transform="matrix(0.7071 0.7071 -0.7071 0.7071 791.7401 334.6497)" class="st6 st7 st10">?</text>
			<text transform="matrix(0.8124 0.583 -0.583 0.8124 776.9818 311.0287)" class="st6 st7 st11">?</text>
			<text transform="matrix(0.8125 -0.583 0.583 0.8125 733.6177 325.1266)" class="st6 st7 st12">?</text>
			<path class="st6" d="M763.3,487.7c-3.3,0-6.5-0.1-9.8-0.4c-10.4-0.9-20.7-3.2-30.4-6.9c-2.1-0.8-4.2-1.7-6.3-2.6
				c-8.5-3.8-16.6-8.8-23.9-14.6c-27.1-21.6-42.7-53.9-42.7-88.5c0-62.3,50.7-113,113-113c62.3,0,113,50.7,113,113
				c0,45-26.7,85.7-68,103.7c-11.2,4.9-23.1,7.9-35.3,8.9C769.8,487.6,766.5,487.7,763.3,487.7z M763.3,267.6c-59,0-107,48-107,107
				c0,32.8,14.7,63.4,40.4,83.8c6.9,5.5,14.6,10.2,22.6,13.8c1.9,0.9,3.9,1.7,5.9,2.5c9.2,3.5,18.9,5.7,28.8,6.6
				c6.1,0.5,12.4,0.5,18.5,0c11.5-1,22.8-3.8,33.4-8.4c39.2-17,64.4-55.6,64.4-98.2C870.3,315.6,822.3,267.6,763.3,267.6z"/>
			<g>
				<text transform="matrix(1 0 0 1 733.9535 461.1713)"><tspan x="0" y="0" class="st13 st28 st29">Help</tspan><tspan x="36.4" y="0" class="st6 st28 st29">Me</tspan></text>
			</g>
		</g>
		<g>
			<linearGradient id="SVGID_7_" gradientUnits="userSpaceOnUse" x1="1007.7628" y1="706.0845" x2="1007.7628" y2="485.9851">
				<stop  offset="0" style="stop-color:#002244"/>
				<stop  offset="1" style="stop-color:#FFFFFF"/>
			</linearGradient>
			<path class="st30" d="M1117.8,610.3c0,45.2-27.2,84-66.2,101c0,0,0,0-0.1,0c-10.7,4.6-22.2,7.6-34.3,8.7
				c-3.1,0.3-6.3,0.4-9.5,0.4c-3.2,0-6.4-0.1-9.5-0.4c-10.3-0.9-20.3-3.2-29.6-6.7c-2.1-0.8-4.1-1.6-6.1-2.5
				c-8.4-3.8-16.2-8.6-23.3-14.2c-25.3-20.2-41.6-51.3-41.6-86.2c0-60.8,49.3-110,110-110S1117.8,549.5,1117.8,610.3z"/>
			<path class="st6" d="M1007.8,723.4c-3.3,0-6.5-0.1-9.8-0.4c-10.4-0.9-20.7-3.2-30.4-6.9c-2.1-0.8-4.2-1.7-6.3-2.6
				c-8.5-3.8-16.6-8.8-23.9-14.6c-27.1-21.6-42.7-53.9-42.7-88.5c0-62.3,50.7-113,113-113c62.3,0,113,50.7,113,113
				c0,45-26.7,85.7-68,103.7c-11.2,4.9-23.1,7.9-35.3,8.9C1014.3,723.2,1011,723.4,1007.8,723.4z M1007.8,503.3
				c-59,0-107,48-107,107c0,32.8,14.7,63.4,40.4,83.8c6.9,5.5,14.6,10.2,22.6,13.8c1.9,0.9,3.9,1.7,5.9,2.5
				c9.2,3.5,18.9,5.7,28.8,6.6c6.1,0.5,12.4,0.5,18.5,0c11.5-1,22.8-3.8,33.4-8.4c39.2-17,64.4-55.6,64.4-98.2
				C1114.8,551.3,1066.8,503.3,1007.8,503.3z"/>
			<g>
				<g>
					<path class="st16" d="M1043.5,618.5c0.1,19.8-14.1,34.6-33.1,34.4c-19.1-0.2-33.1-14.9-33-34.6c0.1-19.9,14.1-34.3,33.2-34.3
						C1029.7,584,1043.4,598.3,1043.5,618.5z"/>
				</g>
				<path class="st16" d="M1087.4,659.2c-6.8,8.8-14.1,17.7-22.8,24.6c-7.5,5.9-11.6,17.2-13,27.5c0,0,0,0-0.1,0
					c-10.7,4.6-22.2,7.6-34.3,8.7c-3.1,0.3-6.3,0.4-9.5,0.4c-3.2,0-6.4-0.1-9.5-0.4c-10.3-0.9-20.3-3.2-29.6-6.7v-14.7
					c-2.6,4.3-4.7,8.4-6.1,12.2c-8.4-3.8-16.2-8.6-23.3-14.2c2.5-6,6-11.8,10.4-17.2c8.6-10.6,19.6-16.9,33.6-16.9
					c15.2,0,30.5,0,45.7,0c28.3,0,51.6-27.5,47-55.6c-0.2-1.3-0.6-2.6-0.9-3.9c-2.1-9.2,2-15.3,10.5-17.3
					c9.6-2.3,14.4,4.4,15.6,12.6C1104.4,620.1,1101.3,641.2,1087.4,659.2z"/>
			</g>
			<text transform="matrix(1 0 0 1 991.4514 572.3817)" class="st16 st7 st8">?</text>
			<text transform="matrix(0.7071 -0.7071 0.7071 0.7071 970.3489 583.1499)" class="st16 st7 st9">?</text>
			<text transform="matrix(0.7071 0.7071 -0.7071 0.7071 1036.2252 570.3248)" class="st16 st7 st10">?</text>
			<text transform="matrix(0.8124 0.583 -0.583 0.8124 1021.4669 546.7037)" class="st16 st7 st11">?</text>
			<text transform="matrix(0.8125 -0.583 0.583 0.8125 978.1028 560.8016)" class="st16 st7 st12">?</text>
			<path class="st6" d="M1007.8,723.4c-3.3,0-6.5-0.1-9.8-0.4c-10.4-0.9-20.7-3.2-30.4-6.9c-2.1-0.8-4.2-1.7-6.3-2.6
				c-8.5-3.8-16.6-8.8-23.9-14.6c-27.1-21.6-42.7-53.9-42.7-88.5c0-62.3,50.7-113,113-113c62.3,0,113,50.7,113,113
				c0,45-26.7,85.7-68,103.7c-11.2,4.9-23.1,7.9-35.3,8.9C1014.3,723.2,1011,723.4,1007.8,723.4z M1007.8,503.3
				c-59,0-107,48-107,107c0,32.8,14.7,63.4,40.4,83.8c6.9,5.5,14.6,10.2,22.6,13.8c1.9,0.9,3.9,1.7,5.9,2.5
				c9.2,3.5,18.9,5.7,28.8,6.6c6.1,0.5,12.4,0.5,18.5,0c11.5-1,22.8-3.8,33.4-8.4c39.2-17,64.4-55.6,64.4-98.2
				C1114.8,551.3,1066.8,503.3,1007.8,503.3z"/>
			<g>
				<text transform="matrix(1 0 0 1 978.4501 694.2692)"><tspan x="0" y="0" class="st13" style="font-family:'AzoSansUber-Regular'; font-size:16.528px;">Help</tspan><tspan x="32.4" y="0" class="st6" style="font-family:'AzoSansUber-Regular'; font-size:16.528px;">Me</tspan></text>
			</g>
		</g>
	</g>
</g>
<g id="Layer_3" class="st0">
	<g class="st1">
		<g>
			<g>
				<path d="M567.6,505.5c0.2,66.7-47.5,116.3-111.4,115.7c-64.2-0.6-111.4-50.1-111-116.3c0.4-66.9,47.5-115.5,111.7-115.5
					C521.4,389.4,567.4,437.7,567.6,505.5z"/>
			</g>
			<path d="M287.3,847c2.5-20.8,11.9-44.7,28.6-72.1c0,26.3,0,49.9,0,72.1H595c-0.1-8.5-0.1-17-0.2-25.5
				c-0.4-41.7,11.1-70.2,43.9-96.3c29.1-23.1,53.9-52.8,76.7-82.6c46.7-60.8,57.3-131.6,46.2-205.6c-4.1-27.4-20.1-49.9-52.5-42.3
				c-28.6,6.7-42.5,27.2-35.4,58.1c1,4.4,2.4,8.8,3.1,13.2c15.5,94.4-62.8,187.1-158,187.1c-51.3,0-102.6,0-153.9,0
				c-47.2,0-84.3,21.2-113.1,56.8c-33.6,41.5-50.8,89.2-52.3,137H287.3z"/>
		</g>
		<text transform="matrix(1 0 0 1 394.576 349.6953)" class="st2 st3">?</text>
		<text transform="matrix(0.7071 -0.7071 0.7071 0.7071 286.6974 427.0807)" class="st2 st31">?</text>
		<text transform="matrix(0.7071 0.7071 -0.7071 0.7071 588.8818 389.5572)" class="st2 st32">?</text>
		<text transform="matrix(0.8124 0.583 -0.583 0.8124 535.8143 297.9275)" class="st2 st33">?</text>
		<text transform="matrix(0.8125 -0.583 0.583 0.8125 315.8119 349.8308)" class="st2 st34">?</text>
	</g>
</g>
<g id="Layer_4" class="st0">
	<g class="st1">
		<g>
			<g>
				<path d="M554.7,454.3c0.2,66.7-47.5,116.3-111.4,115.7c-64.2-0.6-111.4-50.1-111-116.3c0.4-66.9,47.5-115.5,111.7-115.5
					C508.4,338.2,554.5,386.5,554.7,454.3z"/>
			</g>
			<path d="M274.4,795.8c2.5-20.8,11.9-44.7,28.6-72.1c0,26.3,0,49.9,0,72.1h279.1c-0.1-8.5-0.1-17-0.2-25.5
				c-0.4-41.7,11.1-70.2,43.9-96.3c29.1-23.1,53.9-52.8,76.7-82.6c46.7-60.8,57.3-131.6,46.2-205.6c-4.1-27.4-20.1-49.9-52.5-42.3
				c-28.6,6.7-42.5,27.2-35.4,58.1c1,4.4,2.4,8.8,3.1,13.2C679.5,509.3,601.2,602,506,602c-51.3,0-102.6,0-153.9,0
				c-47.2,0-84.3,21.2-113.1,56.8c-33.6,41.5-50.8,89.2-52.3,137H274.4z"/>
		</g>
		<text transform="matrix(1 0 0 1 381.6649 298.5107)" class="st2 st3">?</text>
		<text transform="matrix(0.5735 -0.8192 0.8192 0.5735 269.5985 393.1457)" class="st2 st31">?</text>
		<text transform="matrix(0.7071 0.7071 -0.7071 0.7071 575.9718 338.3742)" class="st2 st32">?</text>
		<text transform="matrix(0.5825 0.8128 -0.8128 0.5825 513.8885 206.2703)" class="st2 st35">?</text>
		<text transform="matrix(0.9128 -0.4084 0.4084 0.9128 288.2494 264.9237)" class="st2 st36">?</text>
		<text transform="matrix(0.7071 0.7071 -0.7071 0.7071 540.2579 330.3385)" class="st2 st37">?</text>
		<text transform="matrix(0.9233 0.3839 -0.3839 0.9233 540.4998 152.8084)" class="st2 st37">?</text>
		<text transform="matrix(0.9484 -0.3171 0.3171 0.9484 370.2698 214.9108)" class="st2 st38">?</text>
		<text transform="matrix(0.8143 -0.5804 0.5804 0.8143 314.7659 344.8482)" class="st2 st39">?</text>
		<text transform="matrix(0.4489 -0.8936 0.8936 0.4489 246.5483 264.8671)" class="st2 st40">?</text>
		<text transform="matrix(0.3145 0.9493 -0.9493 0.3145 668.5241 237.4064)" class="st2 st41">?</text>
	</g>
</g>
<g id="Layer_7" class="st0">
	<g class="st1">
		<g>
			<path d="M720.6,449.8c0,126.8-76.4,235.7-185.7,283.3c0,0-0.1,0-0.1,0.1c-29.9,13-62.3,21.4-96.3,24.3
				c-8.8,0.8-17.7,1.1-26.7,1.1c-9,0-17.9-0.4-26.7-1.1c-29-2.5-56.9-9-83-18.9c-5.8-2.2-11.5-4.6-17.1-7.1
				c-23.5-10.6-45.4-24-65.3-39.9C148.6,635,103,547.8,103,449.8C103,279.3,241.3,141,411.8,141S720.6,279.3,720.6,449.8z"/>
		</g>
		<g>
			<g>
				<g>
					<path class="st16" d="M512,472.7c0.2,55.6-39.6,97-92.9,96.5c-53.5-0.5-92.9-41.8-92.6-97c0.4-55.8,39.6-96.4,93.1-96.4
						C473.5,375.9,511.9,416.1,512,472.7z"/>
				</g>
			</g>
			<g>
				<path class="st16" d="M635.3,587.1c-19,24.8-39.7,49.6-63.9,68.9c-21,16.7-32.5,48.3-36.5,77.1c0,0-0.1,0-0.1,0.1
					c-29.9,13-62.3,21.4-96.3,24.3c-8.8,0.8-17.7,1.1-26.7,1.1c-9,0-17.9-0.4-26.7-1.1c-29-2.5-56.9-9-83-18.9v-41.2
					c-7.4,12.2-13.1,23.5-17.1,34.1c-23.5-10.6-45.4-24-65.3-39.9c7.1-16.8,16.8-33.1,29.1-48.3c24-29.7,54.9-47.4,94.3-47.4
					c42.8,0,85.5,0,128.3,0c79.4,0,144.7-77.3,131.8-156c-0.6-3.7-1.8-7.3-2.6-11c-5.9-25.7,5.6-42.8,29.5-48.4
					c27-6.4,40.3,12.4,43.8,35.2C683.1,477.4,674.2,536.4,635.3,587.1z"/>
			</g>
		</g>
		<g>
			<path class="st16" d="M397.7,293.4c-0.8-2.1-1.4-4.4-1.9-7c-0.4-2.6-0.7-5.1-0.7-7.4c0-3.7,0.4-7.1,1.1-10.1
				c0.7-3.1,1.8-5.9,3.3-8.6c1.4-2.7,3.3-5.3,5.4-7.7c2.2-2.4,4.7-4.9,7.6-7.3c3.1-2.6,5.7-5,8-7.2c2.3-2.2,4.2-4.4,5.8-6.6
				c1.6-2.2,2.8-4.5,3.6-6.9c0.8-2.4,1.2-5,1.2-7.9c0-2.5-0.4-4.8-1.3-6.9c-0.9-2.1-2.2-4-3.8-5.5c-1.6-1.5-3.7-2.7-6-3.6
				c-2.4-0.9-5-1.3-7.9-1.3c-6.3,0-12.8,1.3-19.5,3.9c-6.7,2.6-13.1,6.6-19.2,11.9v-36.3c6.2-3.7,12.9-6.5,20.2-8.3
				c7.3-1.8,14.9-2.8,22.6-2.8c7.5,0,14.4,0.8,20.8,2.5c6.4,1.6,12,4.2,16.8,7.8c4.8,3.5,8.5,8.1,11.2,13.6c2.7,5.5,4,12.1,4,19.8
				c0,4.9-0.6,9.3-1.7,13.3c-1.1,4-2.8,7.7-4.9,11.3c-2.2,3.5-4.9,6.9-8.1,10.2c-3.2,3.3-6.9,6.6-11.1,10.1
				c-2.8,2.3-5.3,4.5-7.4,6.5c-2.1,2-3.9,4-5.3,6c-1.4,2-2.5,4.1-3.2,6.3c-0.7,2.2-1.1,4.7-1.1,7.5c0,1.9,0.3,3.9,0.8,5.9
				c0.5,2,1.2,3.7,2.1,5.1H397.7z M415.3,346.2c-6.4,0-11.8-1.9-16-5.8c-4.3-4-6.4-8.8-6.4-14.2c0-5.6,2.1-10.3,6.4-14.1
				c4.3-3.8,9.6-5.7,16-5.7c6.3,0,11.6,1.9,15.8,5.7c4.2,3.7,6.3,8.4,6.3,14.1c0,5.8-2,10.6-6.1,14.3
				C427,344.3,421.7,346.2,415.3,346.2z"/>
		</g>
		<g>
			<path class="st16" d="M300.4,345.2c-1-0.4-2-1-3.1-1.8c-1.1-0.7-2-1.5-2.8-2.3c-1.3-1.3-2.3-2.6-3.1-3.9
				c-0.8-1.3-1.4-2.7-1.9-4.1c-0.4-1.4-0.7-2.9-0.8-4.6c-0.1-1.6-0.1-3.3,0.1-5.2c0.2-1.9,0.3-3.7,0.3-5.3c0-1.6-0.1-3-0.3-4.3
				c-0.2-1.3-0.6-2.5-1.1-3.6c-0.5-1.1-1.3-2.2-2.3-3.2c-0.9-0.9-1.8-1.5-2.9-1.9c-1-0.4-2.1-0.6-3.2-0.6c-1.1,0-2.2,0.3-3.3,0.8
				c-1.1,0.5-2.2,1.3-3.2,2.3c-2.2,2.2-4,4.9-5.4,8.1c-1.4,3.2-2.3,6.8-2.5,10.8l-12.6-12.6c0.9-3.4,2.2-6.7,4.1-9.9
				c1.9-3.2,4.2-6.1,6.9-8.8c2.6-2.6,5.3-4.7,8.1-6.4c2.8-1.7,5.6-2.7,8.5-3.1c2.9-0.4,5.7-0.2,8.6,0.8c2.8,1,5.6,2.8,8.3,5.5
				c1.7,1.7,3,3.4,4,5.2c1,1.8,1.7,3.6,2.2,5.6c0.5,2,0.7,4.1,0.7,6.3c0,2.2-0.1,4.7-0.4,7.3c-0.2,1.8-0.3,3.4-0.3,4.8
				c0,1.4,0,2.7,0.2,3.9c0.2,1.2,0.6,2.3,1.1,3.3c0.5,1,1.3,2,2.2,3c0.7,0.7,1.4,1.3,2.3,1.8c0.9,0.5,1.7,0.9,2.5,1L300.4,345.2z
				 M324.8,357.4c-2.2,2.2-4.7,3.4-7.6,3.5c-2.9,0.1-5.2-0.8-7.1-2.7c-1.9-1.9-2.8-4.3-2.7-7.1c0.2-2.8,1.4-5.3,3.6-7.5
				c2.2-2.2,4.7-3.4,7.4-3.5c2.7-0.2,5.1,0.7,7.1,2.7c2,2,3,4.4,2.8,7.1C328.2,352.7,327,355.2,324.8,357.4z"/>
		</g>
		<g>
			<path class="st16" d="M507.1,354.9c-2.1-2.1-3.3-4.6-3.4-7.3c-0.1-2.8,0.8-5,2.6-6.9c1.9-1.9,4.1-2.7,6.8-2.6
				c2.7,0.2,5.1,1.3,7.2,3.5c2.1,2.1,3.2,4.5,3.4,7.2c0.2,2.6-0.7,4.9-2.6,6.8c-1.9,1.9-4.2,2.8-6.8,2.7
				C511.6,358.1,509.2,357,507.1,354.9z M518.8,331.4c0.4-1,1-2,1.7-3c0.7-1,1.5-1.9,2.2-2.7c1.2-1.2,2.5-2.2,3.7-3
				c1.3-0.8,2.6-1.4,4-1.8c1.4-0.4,2.8-0.7,4.4-0.8c1.5-0.1,3.2-0.1,5,0.1c1.9,0.2,3.6,0.3,5.1,0.3c1.5,0,2.9-0.1,4.2-0.3
				c1.3-0.2,2.4-0.6,3.5-1.1c1.1-0.5,2.1-1.3,3-2.2c0.8-0.8,1.5-1.7,1.9-2.8c0.4-1,0.6-2,0.6-3.1c0-1.1-0.3-2.1-0.8-3.2
				c-0.5-1.1-1.2-2.1-2.2-3.1c-2.1-2.1-4.7-3.8-7.8-5.2c-3.1-1.4-6.6-2.2-10.3-2.4l12.1-12.1c3.3,0.8,6.5,2.2,9.5,4
				c3.1,1.8,5.9,4,8.5,6.6c2.5,2.5,4.5,5.1,6.1,7.8c1.6,2.7,2.6,5.4,3,8.2c0.4,2.8,0.2,5.5-0.8,8.3c-0.9,2.7-2.7,5.4-5.3,8
				c-1.6,1.6-3.3,2.9-5,3.9c-1.7,0.9-3.5,1.7-5.4,2.1c-1.9,0.5-3.9,0.7-6.1,0.7c-2.2,0-4.5-0.1-7-0.3c-1.7-0.2-3.3-0.3-4.6-0.3
				c-1.4,0-2.6,0-3.8,0.2c-1.1,0.2-2.2,0.5-3.2,1c-1,0.5-1.9,1.2-2.9,2.2c-0.6,0.6-1.2,1.4-1.7,2.2c-0.5,0.8-0.8,1.6-1,2.4
				L518.8,331.4z"/>
		</g>
		<g>
			<path class="st16" d="M476.6,292.6c-3.6-2.6-5.8-5.8-6.6-9.6c-0.8-3.9-0.1-7.4,2.1-10.5c2.2-3.1,5.3-4.9,9.2-5.3
				c3.9-0.4,7.6,0.7,11.2,3.3c3.5,2.5,5.7,5.7,6.5,9.5c0.8,3.7,0.1,7.2-2.1,10.4c-2.3,3.2-5.4,5.1-9.2,5.5
				C483.9,296.2,480.2,295.2,476.6,292.6z M487.9,256.1c0.4-1.5,1-3,1.8-4.7c0.8-1.6,1.7-3.1,2.6-4.4c1.5-2.1,3-3.8,4.7-5.2
				c1.6-1.4,3.4-2.6,5.3-3.5c1.9-0.9,3.9-1.6,6.1-2.1c2.2-0.5,4.6-0.8,7.1-1c2.7-0.2,5.2-0.5,7.3-0.8c2.2-0.3,4.1-0.8,5.9-1.4
				c1.8-0.6,3.4-1.4,4.8-2.4c1.4-1,2.7-2.3,3.8-3.9c1-1.4,1.7-2.9,2-4.4c0.4-1.5,0.4-3.1,0.1-4.6c-0.3-1.5-0.9-3-1.9-4.4
				c-1-1.4-2.3-2.7-3.9-3.9c-3.5-2.5-7.6-4.4-12.4-5.6c-4.8-1.2-9.9-1.6-15.4-1l14.5-20.2c4.9,0.4,9.8,1.6,14.6,3.5
				c4.8,1.9,9.4,4.4,13.7,7.5c4.2,3,7.7,6.2,10.6,9.7c2.9,3.5,5,7.2,6.3,11.1c1.2,3.9,1.5,7.9,0.8,12c-0.7,4.1-2.6,8.4-5.7,12.7
				c-2,2.7-4,5-6.3,6.7c-2.2,1.8-4.6,3.2-7.3,4.3c-2.6,1.1-5.5,1.9-8.6,2.4c-3.1,0.5-6.5,0.9-10.2,1.2c-2.5,0.2-4.7,0.4-6.7,0.7
				c-2,0.3-3.8,0.7-5.3,1.2c-1.6,0.5-3,1.3-4.3,2.2c-1.3,0.9-2.5,2.2-3.6,3.8c-0.8,1.1-1.4,2.3-1.9,3.6c-0.5,1.3-0.8,2.6-0.8,3.7
				L487.9,256.1z"/>
		</g>
		<g>
			<path class="st16" d="M326.3,270.4c-1.3-0.8-2.6-1.9-3.9-3.2c-1.3-1.3-2.4-2.6-3.3-3.9c-1.5-2.1-2.6-4.1-3.4-6.1
				c-0.8-2-1.4-4-1.6-6.1c-0.3-2.1-0.3-4.2-0.1-6.5c0.2-2.2,0.7-4.6,1.3-7.1c0.7-2.7,1.2-5.1,1.6-7.2c0.4-2.1,0.6-4.2,0.6-6
				c0-1.9-0.2-3.6-0.7-5.3c-0.5-1.6-1.3-3.3-2.5-4.9c-1-1.4-2.2-2.5-3.5-3.3c-1.3-0.8-2.8-1.3-4.3-1.5c-1.5-0.2-3.1-0.1-4.8,0.4
				c-1.7,0.5-3.3,1.3-4.9,2.4c-3.5,2.5-6.6,5.8-9.3,10c-2.7,4.2-4.7,8.9-5.9,14.3L267,216.2c2-4.5,4.6-8.8,8-12.7
				c3.3-4,7.2-7.5,11.5-10.6c4.2-3,8.4-5.3,12.6-7c4.2-1.7,8.4-2.4,12.5-2.4c4.1,0.1,8,1.1,11.7,3.1c3.7,2,7.1,5.1,10.2,9.4
				c2,2.7,3.4,5.4,4.4,8.1c1,2.7,1.5,5.4,1.8,8.3c0.2,2.8,0.1,5.8-0.4,8.9c-0.5,3.1-1.2,6.4-2.2,10c-0.6,2.4-1.1,4.6-1.5,6.6
				c-0.4,2-0.6,3.8-0.6,5.4c0,1.7,0.2,3.3,0.7,4.8c0.5,1.5,1.3,3.1,2.4,4.6c0.8,1.1,1.7,2.1,2.8,3c1.1,0.9,2.2,1.6,3.2,2
				L326.3,270.4z M357.2,292.8c-3.6,2.6-7.3,3.6-11.2,3.2c-4-0.5-7.1-2.3-9.2-5.4c-2.2-3.1-2.9-6.6-2.1-10.4c0.9-3.8,3.1-7,6.7-9.6
				c3.5-2.5,7.2-3.6,11.1-3.2c3.8,0.4,6.9,2.2,9.1,5.4c2.3,3.2,3.1,6.7,2.3,10.5C363,287.1,360.8,290.2,357.2,292.8z"/>
		</g>
		<g>
			<path d="M363.3,700.1h-8.5v-15.3h-15.5v15.3h-8.5v-37.5h8.5v15h15.5v-15h8.5V700.1z"/>
			<path d="M395.1,689.1h-17.5c0.3,3.9,2.7,5.8,7.4,5.8c2.9,0,5.5-0.7,7.8-2.1v6c-2.5,1.3-5.7,2-9.7,2c-4.3,0-7.7-1.2-10.1-3.6
				c-2.4-2.4-3.6-5.7-3.6-10c0-4.4,1.3-8,3.9-10.6c2.6-2.6,5.8-3.9,9.5-3.9c3.9,0,6.9,1.2,9.1,3.5c2.1,2.3,3.2,5.5,3.2,9.4V689.1z
				 M387.5,684c0-3.8-1.6-5.8-4.7-5.8c-1.3,0-2.5,0.5-3.4,1.6c-1,1.1-1.6,2.5-1.8,4.1H387.5z"/>
			<path d="M408.3,700.1h-8.3v-39.7h8.3V700.1z"/>
			<path d="M423.7,697h-0.1v15.4h-8.3v-39.1h8.3v4h0.1c2-3.1,4.9-4.7,8.6-4.7c3.5,0,6.2,1.2,8,3.6c1.9,2.4,2.8,5.6,2.8,9.7
				c0,4.5-1.1,8.1-3.3,10.8c-2.2,2.7-5.1,4.1-8.8,4.1C427.8,700.8,425.4,699.5,423.7,697z M423.4,686v2.1c0,1.8,0.5,3.4,1.5,4.5
				c1,1.2,2.3,1.8,3.8,1.8c1.9,0,3.3-0.7,4.4-2.2c1-1.5,1.6-3.5,1.6-6.2c0-4.7-1.8-7.1-5.5-7.1c-1.7,0-3.1,0.6-4.1,1.9
				C424,682.2,423.4,683.9,423.4,686z"/>
			<path d="M492.1,700.1h-8.3v-22.5c0-2.4,0.1-5.1,0.3-8h-0.2c-0.4,2.3-0.8,4-1.2,5l-8.8,25.5H467l-8.9-25.3
				c-0.2-0.7-0.6-2.4-1.2-5.2h-0.2c0.2,3.7,0.3,6.9,0.3,9.7v20.7h-7.6v-37.5h12.4l7.7,22.2c0.6,1.8,1.1,3.6,1.3,5.4h0.2
				c0.5-2.1,1-3.9,1.5-5.4l7.7-22.2h12.1V700.1z"/>
			<path d="M523.9,689.1h-17.5c0.3,3.9,2.7,5.8,7.4,5.8c2.9,0,5.5-0.7,7.8-2.1v6c-2.5,1.3-5.7,2-9.7,2c-4.3,0-7.7-1.2-10.1-3.6
				c-2.4-2.4-3.6-5.7-3.6-10c0-4.4,1.3-8,3.9-10.6c2.6-2.6,5.8-3.9,9.5-3.9c3.9,0,6.9,1.2,9.1,3.5c2.1,2.3,3.2,5.5,3.2,9.4V689.1z
				 M516.2,684c0-3.8-1.6-5.8-4.7-5.8c-1.3,0-2.5,0.5-3.4,1.6c-1,1.1-1.6,2.5-1.8,4.1H516.2z"/>
		</g>
	</g>
</g>
<g id="Layer_8" class="st0">
	<g class="st1">
		<g>
			<path class="st16" d="M717.1,454c0,126.8-76.4,235.7-185.7,283.3c0,0-0.1,0-0.1,0.1c-29.9,13-62.3,21.4-96.3,24.3
				c-8.8,0.8-17.7,1.1-26.7,1.1c-9,0-17.9-0.4-26.7-1.1c-29-2.5-56.9-9-83-18.9c-5.8-2.2-11.5-4.6-17.1-7.1
				c-23.5-10.6-45.4-24-65.3-39.9C145.1,639.1,99.5,551.9,99.5,454c0-170.6,138.3-308.8,308.8-308.8S717.1,283.4,717.1,454z"/>
			<path d="M408.3,769.8c-9.1,0-18.3-0.4-27.3-1.2c-29.1-2.5-57.7-9-84.9-19.3c-6-2.3-11.9-4.7-17.5-7.3
				c-23.8-10.7-46.3-24.5-66.8-40.8C136,640.9,92.5,550.7,92.5,454c0-174.1,141.7-315.8,315.8-315.8S724.2,279.8,724.2,454
				c0,125.8-74.5,239.4-189.8,289.7l0,0c-31.5,13.7-64.6,22.1-98.7,25C426.6,769.4,417.4,769.8,408.3,769.8z M408.3,152.2
				c-166.4,0-301.8,135.4-301.8,301.8c0,92.5,41.6,178.6,114,236.3c19.6,15.6,41.1,28.7,63.8,39c5.4,2.5,11.1,4.8,16.7,7
				c26,9.9,53.3,16.1,81.1,18.5c17.2,1.5,34.9,1.5,52.1,0c32.5-2.8,64.1-10.7,93.9-23.7l0.3-0.1c110.3-48,181.5-156.6,181.5-276.9
				C710.1,287.5,574.7,152.2,408.3,152.2z"/>
		</g>
		<g>
			<g>
				<g>
					<path d="M508.6,476.8c0.2,55.6-39.6,97-92.9,96.5c-53.5-0.5-92.9-41.8-92.6-97c0.4-55.8,39.6-96.4,93.1-96.4
						C470,380,508.4,420.2,508.6,476.8z"/>
				</g>
			</g>
			<g>
				<path d="M631.9,591.2c-19,24.8-39.7,49.6-63.9,68.9c-21,16.7-32.5,48.3-36.5,77.1c0,0-0.1,0-0.1,0.1
					c-29.9,13-62.3,21.4-96.3,24.3c-8.8,0.8-17.7,1.1-26.7,1.1c-9,0-17.9-0.4-26.7-1.1c-29-2.5-56.9-9-83-18.9v-41.2
					c-7.4,12.2-13.1,23.5-17.1,34.1c-23.5-10.6-45.4-24-65.3-39.9c7.1-16.8,16.8-33.1,29.1-48.3c24-29.7,54.9-47.4,94.3-47.4
					c42.8,0,85.5,0,128.3,0c79.4,0,144.7-77.3,131.8-156c-0.6-3.7-1.8-7.3-2.6-11c-5.9-25.7,5.6-42.8,29.5-48.4
					c27-6.4,40.3,12.4,43.8,35.2C679.6,481.5,670.8,540.5,631.9,591.2z"/>
			</g>
		</g>
		<g>
			<path d="M394.2,297.5c-0.8-2.1-1.4-4.4-1.9-7c-0.4-2.6-0.7-5.1-0.7-7.4c0-3.7,0.4-7.1,1.1-10.1c0.7-3.1,1.8-5.9,3.3-8.6
				c1.4-2.7,3.3-5.3,5.4-7.7c2.2-2.4,4.7-4.9,7.6-7.3c3.1-2.6,5.7-5,8-7.2c2.3-2.2,4.2-4.4,5.8-6.6c1.6-2.2,2.8-4.5,3.6-6.9
				c0.8-2.4,1.2-5,1.2-7.9c0-2.5-0.4-4.8-1.3-6.9c-0.9-2.1-2.2-4-3.8-5.5c-1.6-1.5-3.7-2.7-6-3.6c-2.4-0.9-5-1.3-7.9-1.3
				c-6.3,0-12.8,1.3-19.5,3.9c-6.7,2.6-13.1,6.6-19.2,11.9v-36.3c6.2-3.7,12.9-6.5,20.2-8.3c7.3-1.8,14.9-2.8,22.6-2.8
				c7.5,0,14.4,0.8,20.8,2.5c6.4,1.6,12,4.2,16.8,7.8c4.8,3.5,8.5,8.1,11.2,13.6c2.7,5.5,4,12.1,4,19.8c0,4.9-0.6,9.3-1.7,13.3
				c-1.1,4-2.8,7.7-4.9,11.3c-2.2,3.5-4.9,6.9-8.1,10.2c-3.2,3.3-6.9,6.6-11.1,10.1c-2.8,2.3-5.3,4.5-7.4,6.5c-2.1,2-3.9,4-5.3,6
				c-1.4,2-2.5,4.1-3.2,6.3c-0.7,2.2-1.1,4.7-1.1,7.5c0,1.9,0.3,3.9,0.8,5.9c0.5,2,1.2,3.7,2.1,5.1H394.2z M411.8,350.3
				c-6.4,0-11.8-1.9-16-5.8c-4.3-4-6.4-8.8-6.4-14.2c0-5.6,2.1-10.3,6.4-14.1c4.3-3.8,9.6-5.7,16-5.7c6.3,0,11.6,1.9,15.8,5.7
				c4.2,3.7,6.3,8.4,6.3,14.1c0,5.8-2,10.6-6.1,14.3C423.6,348.4,418.3,350.3,411.8,350.3z"/>
		</g>
		<g>
			<path d="M296.9,349.3c-1-0.4-2-1-3.1-1.8c-1.1-0.7-2-1.5-2.8-2.3c-1.3-1.3-2.3-2.6-3.1-3.9c-0.8-1.3-1.4-2.7-1.9-4.1
				c-0.4-1.4-0.7-2.9-0.8-4.6c-0.1-1.6-0.1-3.3,0.1-5.2c0.2-1.9,0.3-3.7,0.3-5.3c0-1.6-0.1-3-0.3-4.3c-0.2-1.3-0.6-2.5-1.1-3.6
				c-0.5-1.1-1.3-2.2-2.3-3.2c-0.9-0.9-1.8-1.5-2.9-1.9c-1-0.4-2.1-0.6-3.2-0.6c-1.1,0-2.2,0.3-3.3,0.8c-1.1,0.5-2.2,1.3-3.2,2.3
				c-2.2,2.2-4,4.9-5.4,8.1c-1.4,3.2-2.3,6.8-2.5,10.8L248.8,318c0.9-3.4,2.2-6.7,4.1-9.9c1.9-3.2,4.2-6.1,6.9-8.8
				c2.6-2.6,5.3-4.7,8.1-6.4c2.8-1.7,5.6-2.7,8.5-3.1c2.9-0.4,5.7-0.2,8.6,0.8c2.8,1,5.6,2.8,8.3,5.5c1.7,1.7,3,3.4,4,5.2
				c1,1.8,1.7,3.6,2.2,5.6c0.5,2,0.7,4.1,0.7,6.3c0,2.2-0.1,4.7-0.4,7.3c-0.2,1.8-0.3,3.4-0.3,4.8c0,1.4,0,2.7,0.2,3.9
				c0.2,1.2,0.6,2.3,1.1,3.3c0.5,1,1.3,2,2.2,3c0.7,0.7,1.4,1.3,2.3,1.8c0.9,0.5,1.7,0.9,2.5,1L296.9,349.3z M321.3,361.5
				c-2.2,2.2-4.7,3.4-7.6,3.5c-2.9,0.1-5.2-0.8-7.1-2.7c-1.9-1.9-2.8-4.3-2.7-7.1c0.2-2.8,1.4-5.3,3.6-7.5c2.2-2.2,4.7-3.4,7.4-3.5
				c2.7-0.2,5.1,0.7,7.1,2.7c2,2,3,4.4,2.8,7.1C324.7,356.8,323.5,359.3,321.3,361.5z"/>
		</g>
		<g>
			<path d="M503.6,359c-2.1-2.1-3.3-4.6-3.4-7.3c-0.1-2.8,0.8-5,2.6-6.9c1.9-1.9,4.1-2.7,6.8-2.6c2.7,0.2,5.1,1.3,7.2,3.5
				c2.1,2.1,3.2,4.5,3.4,7.2c0.2,2.6-0.7,4.9-2.6,6.8c-1.9,1.9-4.2,2.8-6.8,2.7C508.1,362.3,505.7,361.1,503.6,359z M515.3,335.5
				c0.4-1,1-2,1.7-3c0.7-1,1.5-1.9,2.2-2.7c1.2-1.2,2.5-2.2,3.7-3c1.3-0.8,2.6-1.4,4-1.8c1.4-0.4,2.8-0.7,4.4-0.8
				c1.5-0.1,3.2-0.1,5,0.1c1.9,0.2,3.6,0.3,5.1,0.3c1.5,0,2.9-0.1,4.2-0.3c1.3-0.2,2.4-0.6,3.5-1.1c1.1-0.5,2.1-1.3,3-2.2
				c0.8-0.8,1.5-1.7,1.9-2.8c0.4-1,0.6-2,0.6-3.1c0-1.1-0.3-2.1-0.8-3.2c-0.5-1.1-1.2-2.1-2.2-3.1c-2.1-2.1-4.7-3.8-7.8-5.2
				c-3.1-1.4-6.6-2.2-10.3-2.4l12.1-12.1c3.3,0.8,6.5,2.2,9.5,4c3.1,1.8,5.9,4,8.5,6.6c2.5,2.5,4.5,5.1,6.1,7.8
				c1.6,2.7,2.6,5.4,3,8.2c0.4,2.8,0.2,5.5-0.8,8.3c-0.9,2.7-2.7,5.4-5.3,8c-1.6,1.6-3.3,2.9-5,3.9c-1.7,0.9-3.5,1.7-5.4,2.1
				c-1.9,0.5-3.9,0.7-6.1,0.7c-2.2,0-4.5-0.1-7-0.3c-1.7-0.2-3.3-0.3-4.6-0.3c-1.4,0-2.6,0-3.8,0.2c-1.1,0.2-2.2,0.5-3.2,1
				c-1,0.5-1.9,1.2-2.9,2.2c-0.6,0.6-1.2,1.4-1.7,2.2c-0.5,0.8-0.8,1.6-1,2.4L515.3,335.5z"/>
		</g>
		<g>
			<path d="M473.2,296.7c-3.6-2.6-5.8-5.8-6.6-9.6c-0.8-3.9-0.1-7.4,2.1-10.5c2.2-3.1,5.3-4.9,9.2-5.3c3.9-0.4,7.6,0.7,11.2,3.3
				c3.5,2.5,5.7,5.7,6.5,9.5c0.8,3.7,0.1,7.2-2.1,10.4c-2.3,3.2-5.4,5.1-9.2,5.5C480.4,300.3,476.7,299.3,473.2,296.7z M484.5,260.3
				c0.4-1.5,1-3,1.8-4.7c0.8-1.6,1.7-3.1,2.6-4.4c1.5-2.1,3-3.8,4.7-5.2c1.6-1.4,3.4-2.6,5.3-3.5c1.9-0.9,3.9-1.6,6.1-2.1
				c2.2-0.5,4.6-0.8,7.1-1c2.7-0.2,5.2-0.5,7.3-0.8c2.2-0.3,4.1-0.8,5.9-1.4c1.8-0.6,3.4-1.4,4.8-2.4c1.4-1,2.7-2.3,3.8-3.9
				c1-1.4,1.7-2.9,2-4.4c0.4-1.5,0.4-3.1,0.1-4.6c-0.3-1.5-0.9-3-1.9-4.4c-1-1.4-2.3-2.7-3.9-3.9c-3.5-2.5-7.6-4.4-12.4-5.6
				c-4.8-1.2-9.9-1.6-15.4-1l14.5-20.2c4.9,0.4,9.8,1.6,14.6,3.5c4.8,1.9,9.4,4.4,13.7,7.5c4.2,3,7.7,6.2,10.6,9.7
				c2.9,3.5,5,7.2,6.3,11.1c1.2,3.9,1.5,7.9,0.8,12c-0.7,4.1-2.6,8.4-5.7,12.7c-2,2.7-4,5-6.3,6.7c-2.2,1.8-4.6,3.2-7.3,4.3
				c-2.6,1.1-5.5,1.9-8.6,2.4c-3.1,0.5-6.5,0.9-10.2,1.2c-2.5,0.2-4.7,0.4-6.7,0.7c-2,0.3-3.8,0.7-5.3,1.2c-1.6,0.5-3,1.3-4.3,2.2
				c-1.3,0.9-2.5,2.2-3.6,3.8c-0.8,1.1-1.4,2.3-1.9,3.6c-0.5,1.3-0.8,2.6-0.8,3.7L484.5,260.3z"/>
		</g>
		<g>
			<path d="M322.8,274.5c-1.3-0.8-2.6-1.9-3.9-3.2c-1.3-1.3-2.4-2.6-3.3-3.9c-1.5-2.1-2.6-4.1-3.4-6.1c-0.8-2-1.4-4-1.6-6.1
				c-0.3-2.1-0.3-4.2-0.1-6.5c0.2-2.2,0.7-4.6,1.3-7.1c0.7-2.7,1.2-5.1,1.6-7.2c0.4-2.1,0.6-4.2,0.6-6c0-1.9-0.2-3.6-0.7-5.3
				c-0.5-1.6-1.3-3.3-2.5-4.9c-1-1.4-2.2-2.5-3.5-3.3c-1.3-0.8-2.8-1.3-4.3-1.5c-1.5-0.2-3.1-0.1-4.8,0.4c-1.7,0.5-3.3,1.3-4.9,2.4
				c-3.5,2.5-6.6,5.8-9.3,10c-2.7,4.2-4.7,8.9-5.9,14.3l-14.5-20.2c2-4.5,4.6-8.8,8-12.7c3.3-4,7.2-7.5,11.5-10.6
				c4.2-3,8.4-5.3,12.6-7c4.2-1.7,8.4-2.4,12.5-2.4c4.1,0.1,8,1.1,11.7,3.1c3.7,2,7.1,5.1,10.2,9.4c2,2.7,3.4,5.4,4.4,8.1
				c1,2.7,1.5,5.4,1.8,8.3c0.2,2.8,0.1,5.8-0.4,8.9c-0.5,3.1-1.2,6.4-2.2,10c-0.6,2.4-1.1,4.6-1.5,6.6c-0.4,2-0.6,3.8-0.6,5.4
				c0,1.7,0.2,3.3,0.7,4.8c0.5,1.5,1.3,3.1,2.4,4.6c0.8,1.1,1.7,2.1,2.8,3c1.1,0.9,2.2,1.6,3.2,2L322.8,274.5z M353.7,296.9
				c-3.6,2.6-7.3,3.6-11.2,3.2c-4-0.5-7.1-2.3-9.2-5.4c-2.2-3.1-2.9-6.6-2.1-10.4c0.9-3.8,3.1-7,6.7-9.6c3.5-2.5,7.2-3.6,11.1-3.2
				c3.8,0.4,6.9,2.2,9.1,5.4c2.3,3.2,3.1,6.7,2.3,10.5C359.5,291.2,357.3,294.3,353.7,296.9z"/>
		</g>
		<g>
			<path class="st16" d="M359.8,704.2h-8.5V689h-15.5v15.3h-8.5v-37.5h8.5v15h15.5v-15h8.5V704.2z"/>
			<path class="st16" d="M391.7,693.2h-17.5c0.3,3.9,2.7,5.8,7.4,5.8c2.9,0,5.5-0.7,7.8-2.1v6c-2.5,1.3-5.7,2-9.7,2
				c-4.3,0-7.7-1.2-10.1-3.6c-2.4-2.4-3.6-5.7-3.6-10c0-4.4,1.3-8,3.9-10.6c2.6-2.6,5.8-3.9,9.5-3.9c3.9,0,6.9,1.2,9.1,3.5
				c2.1,2.3,3.2,5.5,3.2,9.4V693.2z M384,688.1c0-3.8-1.6-5.8-4.7-5.8c-1.3,0-2.5,0.5-3.4,1.6c-1,1.1-1.6,2.5-1.8,4.1H384z"/>
			<path class="st16" d="M404.8,704.2h-8.3v-39.7h8.3V704.2z"/>
			<path class="st16" d="M420.2,701.1h-0.1v15.4h-8.3v-39.1h8.3v4h0.1c2-3.1,4.9-4.7,8.6-4.7c3.5,0,6.2,1.2,8,3.6
				c1.9,2.4,2.8,5.6,2.8,9.7c0,4.5-1.1,8.1-3.3,10.8c-2.2,2.7-5.1,4.1-8.8,4.1C424.3,704.9,421.9,703.6,420.2,701.1z M419.9,690.1
				v2.1c0,1.8,0.5,3.4,1.5,4.5c1,1.2,2.3,1.8,3.8,1.8c1.9,0,3.3-0.7,4.4-2.2c1-1.5,1.6-3.5,1.6-6.2c0-4.7-1.8-7.1-5.5-7.1
				c-1.7,0-3.1,0.6-4.1,1.9C420.5,686.3,419.9,688,419.9,690.1z"/>
			<path class="st16" d="M488.6,704.2h-8.3v-22.5c0-2.4,0.1-5.1,0.3-8h-0.2c-0.4,2.3-0.8,4-1.2,5l-8.8,25.5h-6.9l-8.9-25.3
				c-0.2-0.7-0.6-2.4-1.2-5.2h-0.2c0.2,3.7,0.3,6.9,0.3,9.7v20.7h-7.6v-37.5h12.4l7.7,22.2c0.6,1.8,1.1,3.6,1.3,5.4h0.2
				c0.5-2.1,1-3.9,1.5-5.4l7.7-22.2h12.1V704.2z"/>
			<path class="st16" d="M520.4,693.2h-17.5c0.3,3.9,2.7,5.8,7.4,5.8c2.9,0,5.5-0.7,7.8-2.1v6c-2.5,1.3-5.7,2-9.7,2
				c-4.3,0-7.7-1.2-10.1-3.6c-2.4-2.4-3.6-5.7-3.6-10c0-4.4,1.3-8,3.9-10.6c2.6-2.6,5.8-3.9,9.5-3.9c3.9,0,6.9,1.2,9.1,3.5
				c2.1,2.3,3.2,5.5,3.2,9.4V693.2z M512.7,688.1c0-3.8-1.6-5.8-4.7-5.8c-1.3,0-2.5,0.5-3.4,1.6c-1,1.1-1.6,2.5-1.8,4.1H512.7z"/>
		</g>
	</g>
</g>
<g id="Layer_6" class="st0">
	<g class="st1">
		<g>
			<path class="st6" d="M720.6,449.8c0,126.8-76.4,235.7-185.7,283.3c0,0-0.1,0-0.1,0.1c-29.9,13-62.3,21.4-96.3,24.3
				c-8.8,0.8-17.7,1.1-26.7,1.1c-9,0-17.9-0.4-26.7-1.1c-29-2.5-56.9-9-83-18.9c-5.8-2.2-11.5-4.6-17.1-7.1
				c-23.5-10.6-45.4-24-65.3-39.9C148.6,635,103,547.8,103,449.8C103,279.3,241.3,141,411.8,141S720.6,279.3,720.6,449.8z"/>
			<path class="st13" d="M411.8,767.1c-9.1,0-18.4-0.4-27.4-1.2c-29.3-2.5-58-9-85.3-19.4c-6-2.3-11.9-4.7-17.6-7.3
				c-23.9-10.8-46.5-24.6-67.1-41C138.3,637.6,94.6,547.1,94.6,449.8c0-174.9,142.3-317.2,317.2-317.2S729,274.9,729,449.8
				c0,126.3-74.8,240.5-190.6,290.9l-0.1,0c-31.6,13.7-64.9,22.2-99.1,25.1C430.2,766.7,421,767.1,411.8,767.1z M411.8,149.5
				c-165.6,0-300.4,134.8-300.4,300.4c0,92.1,41.4,177.8,113.5,235.2c19.5,15.5,40.9,28.6,63.5,38.8c5.4,2.4,11,4.8,16.7,6.9
				c25.9,9.8,53,16,80.8,18.4c17.1,1.5,34.8,1.5,51.9,0c32.3-2.8,63.8-10.7,93.4-23.5l0.4-0.2c109.7-47.7,180.7-155.9,180.7-275.6
				C712.2,284.2,577.4,149.5,411.8,149.5z"/>
		</g>
		<g>
			<g>
				<g>
					<path class="st13" d="M512,472.7c0.2,55.6-39.6,97-92.9,96.5c-53.5-0.5-92.9-41.8-92.6-97c0.4-55.8,39.6-96.4,93.1-96.4
						C473.5,375.9,511.9,416.1,512,472.7z"/>
				</g>
			</g>
			<g>
				<path class="st13" d="M635.3,587.1c-19,24.8-39.7,49.6-63.9,68.9c-21,16.7-32.5,48.3-36.5,77.1c0,0-0.1,0-0.1,0.1
					c-29.9,13-62.3,21.4-96.3,24.3c-8.8,0.8-17.7,1.1-26.7,1.1c-9,0-17.9-0.4-26.7-1.1c-29-2.5-56.9-9-83-18.9v-41.2
					c-7.4,12.2-13.1,23.5-17.1,34.1c-23.5-10.6-45.4-24-65.3-39.9c7.1-16.8,16.8-33.1,29.1-48.3c24-29.7,54.9-47.4,94.3-47.4
					c42.8,0,85.5,0,128.3,0c79.4,0,144.7-77.3,131.8-156c-0.6-3.7-1.8-7.3-2.6-11c-5.9-25.7,5.6-42.8,29.5-48.4
					c27-6.4,40.3,12.4,43.8,35.2C683.1,477.4,674.2,536.4,635.3,587.1z"/>
			</g>
		</g>
		<g>
			<path class="st13" d="M397.7,293.4c-0.8-2.1-1.4-4.4-1.9-7c-0.4-2.6-0.7-5.1-0.7-7.4c0-3.7,0.4-7.1,1.1-10.1
				c0.7-3.1,1.8-5.9,3.3-8.6c1.4-2.7,3.3-5.3,5.4-7.7c2.2-2.4,4.7-4.9,7.6-7.3c3.1-2.6,5.7-5,8-7.2c2.3-2.2,4.2-4.4,5.8-6.6
				c1.6-2.2,2.8-4.5,3.6-6.9c0.8-2.4,1.2-5,1.2-7.9c0-2.5-0.4-4.8-1.3-6.9c-0.9-2.1-2.1-4-3.8-5.5c-1.6-1.5-3.7-2.7-6-3.6
				c-2.4-0.9-5-1.3-7.9-1.3c-6.3,0-12.8,1.3-19.5,3.9c-6.7,2.6-13.1,6.6-19.2,11.9v-36.3c6.2-3.7,12.9-6.5,20.2-8.3
				c7.3-1.8,14.9-2.8,22.6-2.8c7.5,0,14.4,0.8,20.8,2.5c6.4,1.6,12,4.2,16.8,7.8c4.8,3.5,8.5,8.1,11.2,13.6c2.7,5.5,4,12.1,4,19.8
				c0,4.9-0.6,9.3-1.7,13.3c-1.1,4-2.8,7.7-4.9,11.3c-2.2,3.5-4.9,6.9-8.1,10.2c-3.2,3.3-6.9,6.6-11.1,10.1
				c-2.8,2.3-5.3,4.5-7.4,6.5c-2.1,2-3.9,4-5.3,6c-1.4,2-2.5,4.1-3.2,6.3c-0.7,2.2-1.1,4.7-1.1,7.5c0,1.9,0.3,3.9,0.8,5.9
				c0.5,2,1.2,3.7,2.1,5.1H397.7z M415.3,346.2c-6.4,0-11.8-1.9-16-5.8c-4.3-4-6.4-8.8-6.4-14.2c0-5.6,2.1-10.3,6.4-14.1
				c4.3-3.8,9.6-5.7,16-5.7c6.3,0,11.6,1.9,15.8,5.7c4.2,3.7,6.3,8.4,6.3,14.1c0,5.8-2,10.6-6.1,14.3
				C427,344.3,421.7,346.2,415.3,346.2z"/>
		</g>
		<g>
			<path class="st13" d="M300.4,345.2c-1-0.4-2-1-3.1-1.8c-1.1-0.7-2-1.5-2.8-2.3c-1.3-1.3-2.3-2.6-3.1-3.9
				c-0.8-1.3-1.4-2.7-1.9-4.1c-0.4-1.4-0.7-2.9-0.8-4.6c-0.1-1.6-0.1-3.3,0.1-5.2c0.2-1.9,0.3-3.7,0.3-5.3c0-1.6-0.1-3-0.3-4.3
				c-0.2-1.3-0.6-2.5-1.1-3.6c-0.5-1.1-1.3-2.2-2.3-3.2c-0.9-0.9-1.8-1.5-2.9-1.9c-1-0.4-2.1-0.6-3.2-0.6c-1.1,0-2.2,0.3-3.3,0.8
				c-1.1,0.5-2.2,1.3-3.2,2.3c-2.2,2.2-4,4.9-5.4,8.1c-1.4,3.2-2.3,6.8-2.5,10.8l-12.6-12.6c0.9-3.4,2.2-6.7,4.1-9.9
				c1.9-3.2,4.2-6.1,6.9-8.8c2.6-2.6,5.3-4.7,8.1-6.4c2.8-1.7,5.6-2.7,8.5-3.1c2.9-0.4,5.7-0.2,8.6,0.8c2.8,1,5.6,2.8,8.3,5.5
				c1.7,1.7,3,3.4,4,5.2c1,1.8,1.7,3.6,2.2,5.6c0.5,2,0.7,4.1,0.7,6.3c0,2.2-0.1,4.7-0.4,7.3c-0.2,1.8-0.3,3.4-0.3,4.8
				c0,1.4,0,2.7,0.2,3.9c0.2,1.2,0.6,2.3,1.1,3.3c0.5,1,1.3,2,2.2,3c0.7,0.7,1.4,1.3,2.3,1.8c0.9,0.5,1.7,0.9,2.5,1L300.4,345.2z
				 M324.8,357.4c-2.2,2.2-4.7,3.4-7.6,3.5c-2.9,0.1-5.2-0.8-7.1-2.7c-1.9-1.9-2.8-4.3-2.7-7.1c0.2-2.8,1.4-5.3,3.6-7.5
				c2.2-2.2,4.7-3.4,7.4-3.5c2.7-0.2,5.1,0.7,7.1,2.7c2,2,3,4.4,2.8,7.1C328.2,352.7,327,355.2,324.8,357.4z"/>
		</g>
		<g>
			<path class="st13" d="M507.1,354.9c-2.1-2.1-3.3-4.6-3.4-7.3c-0.1-2.8,0.8-5,2.6-6.9c1.9-1.9,4.1-2.7,6.8-2.6
				c2.7,0.2,5.1,1.3,7.2,3.5c2.1,2.1,3.2,4.5,3.4,7.2c0.2,2.6-0.7,4.9-2.6,6.8c-1.9,1.9-4.2,2.8-6.8,2.7
				C511.6,358.1,509.2,357,507.1,354.9z M518.8,331.4c0.4-1,1-2,1.7-3c0.7-1,1.5-1.9,2.2-2.7c1.2-1.2,2.5-2.2,3.7-3
				c1.3-0.8,2.6-1.4,4-1.8c1.4-0.4,2.8-0.7,4.4-0.8c1.5-0.1,3.2-0.1,5,0.1c1.9,0.2,3.6,0.3,5.1,0.3c1.5,0,2.9-0.1,4.2-0.3
				c1.3-0.2,2.4-0.6,3.5-1.1c1.1-0.5,2.1-1.3,3-2.2c0.8-0.8,1.5-1.7,1.9-2.8c0.4-1,0.6-2,0.6-3.1c0-1.1-0.3-2.1-0.8-3.2
				c-0.5-1.1-1.2-2.1-2.2-3.1c-2.1-2.1-4.7-3.8-7.8-5.2c-3.1-1.4-6.6-2.2-10.3-2.4l12.1-12.1c3.3,0.8,6.5,2.2,9.5,4
				c3.1,1.8,5.9,4,8.5,6.6c2.5,2.5,4.5,5.1,6.1,7.8c1.6,2.7,2.6,5.4,3,8.2c0.4,2.8,0.2,5.5-0.8,8.3c-0.9,2.7-2.7,5.4-5.3,8
				c-1.6,1.6-3.3,2.9-5,3.9c-1.7,0.9-3.5,1.7-5.4,2.1c-1.9,0.5-3.9,0.7-6.1,0.7c-2.2,0-4.5-0.1-7-0.3c-1.7-0.2-3.3-0.3-4.6-0.3
				c-1.4,0-2.6,0-3.8,0.2c-1.1,0.2-2.2,0.5-3.2,1c-1,0.5-1.9,1.2-2.9,2.2c-0.6,0.6-1.2,1.4-1.7,2.2c-0.5,0.8-0.8,1.6-1,2.4
				L518.8,331.4z"/>
		</g>
		<g>
			<path class="st13" d="M476.6,292.6c-3.6-2.6-5.8-5.8-6.6-9.6c-0.8-3.9-0.1-7.4,2.1-10.5c2.2-3.1,5.3-4.9,9.2-5.3
				s7.6,0.7,11.2,3.3c3.5,2.5,5.7,5.7,6.5,9.5c0.8,3.7,0.1,7.2-2.1,10.4c-2.3,3.2-5.4,5.1-9.2,5.5
				C483.9,296.2,480.2,295.2,476.6,292.6z M487.9,256.1c0.4-1.5,1-3,1.8-4.7s1.7-3.1,2.6-4.4c1.5-2.1,3-3.8,4.7-5.2
				c1.6-1.4,3.4-2.6,5.3-3.5c1.9-0.9,3.9-1.6,6.1-2.1c2.2-0.5,4.6-0.8,7.1-1c2.7-0.2,5.2-0.5,7.3-0.8c2.2-0.3,4.1-0.8,5.9-1.4
				c1.8-0.6,3.4-1.4,4.8-2.4c1.4-1,2.7-2.3,3.8-3.9c1-1.4,1.7-2.9,2-4.4c0.4-1.5,0.4-3.1,0.1-4.6c-0.3-1.5-0.9-3-1.9-4.4
				c-1-1.4-2.3-2.7-3.9-3.9c-3.5-2.5-7.6-4.4-12.4-5.6c-4.8-1.2-9.9-1.6-15.4-1l14.5-20.2c4.9,0.4,9.8,1.6,14.6,3.5
				c4.8,1.9,9.4,4.4,13.7,7.5c4.2,3,7.7,6.2,10.6,9.7c2.9,3.5,5,7.2,6.3,11.1c1.2,3.9,1.5,7.9,0.8,12c-0.7,4.1-2.6,8.4-5.7,12.7
				c-2,2.7-4,5-6.3,6.7c-2.2,1.8-4.6,3.2-7.3,4.3c-2.6,1.1-5.5,1.9-8.6,2.4c-3.1,0.5-6.5,0.9-10.2,1.2c-2.5,0.2-4.7,0.4-6.7,0.7
				c-2,0.3-3.8,0.7-5.3,1.2c-1.6,0.5-3,1.3-4.3,2.2c-1.3,0.9-2.5,2.2-3.6,3.8c-0.8,1.1-1.4,2.3-1.9,3.6c-0.5,1.3-0.8,2.6-0.8,3.7
				L487.9,256.1z"/>
		</g>
		<g>
			<path class="st13" d="M326.3,270.4c-1.3-0.8-2.6-1.9-3.9-3.2c-1.3-1.3-2.4-2.6-3.3-3.9c-1.5-2.1-2.6-4.1-3.4-6.1
				c-0.8-2-1.4-4-1.6-6.1c-0.3-2.1-0.3-4.2-0.1-6.5c0.2-2.2,0.7-4.6,1.3-7.1c0.7-2.7,1.2-5.1,1.6-7.2c0.4-2.1,0.6-4.2,0.6-6
				c0-1.9-0.2-3.6-0.7-5.3c-0.5-1.6-1.3-3.3-2.5-4.9c-1-1.4-2.2-2.5-3.5-3.3c-1.3-0.8-2.8-1.3-4.3-1.5c-1.5-0.2-3.1-0.1-4.8,0.4
				c-1.7,0.5-3.3,1.3-4.9,2.4c-3.5,2.5-6.6,5.8-9.3,10c-2.7,4.2-4.7,8.9-5.9,14.3L267,216.2c2-4.5,4.6-8.8,8-12.7
				c3.3-4,7.2-7.5,11.5-10.6c4.2-3,8.4-5.3,12.6-7c4.2-1.7,8.4-2.4,12.5-2.4s8,1.1,11.7,3.1c3.7,2,7.1,5.1,10.2,9.4
				c2,2.7,3.4,5.4,4.4,8.1c1,2.7,1.5,5.4,1.8,8.3s0.1,5.8-0.4,8.9c-0.5,3.1-1.2,6.4-2.2,10c-0.6,2.4-1.1,4.6-1.5,6.6
				c-0.4,2-0.6,3.8-0.6,5.4c0,1.7,0.2,3.3,0.7,4.8c0.5,1.5,1.3,3.1,2.4,4.6c0.8,1.1,1.7,2.1,2.8,3c1.1,0.9,2.2,1.6,3.2,2
				L326.3,270.4z M357.2,292.8c-3.6,2.6-7.3,3.6-11.2,3.2c-4-0.5-7.1-2.3-9.2-5.4c-2.2-3.1-2.9-6.6-2.1-10.4c0.9-3.8,3.1-7,6.7-9.6
				c3.5-2.5,7.2-3.6,11.1-3.2c3.8,0.4,6.8,2.2,9.1,5.4c2.3,3.2,3.1,6.7,2.3,10.5C363,287.1,360.8,290.2,357.2,292.8z"/>
		</g>
		<g>
			<path class="st16" d="M363.3,700.1h-8.5v-15.3h-15.5v15.3h-8.5v-37.5h8.5v15h15.5v-15h8.5V700.1z"/>
			<path class="st16" d="M395.1,689.1h-17.5c0.3,3.9,2.7,5.8,7.4,5.8c2.9,0,5.5-0.7,7.8-2.1v6c-2.5,1.3-5.7,2-9.7,2
				c-4.3,0-7.7-1.2-10.1-3.6c-2.4-2.4-3.6-5.7-3.6-10c0-4.5,1.3-8,3.9-10.6c2.6-2.6,5.8-3.9,9.5-3.9c3.9,0,6.9,1.2,9.1,3.5
				c2.1,2.3,3.2,5.5,3.2,9.4V689.1z M387.5,684c0-3.8-1.6-5.8-4.7-5.8c-1.3,0-2.5,0.6-3.4,1.6c-1,1.1-1.6,2.5-1.8,4.1H387.5z"/>
			<path class="st16" d="M408.3,700.1h-8.3v-39.7h8.3V700.1z"/>
			<path class="st16" d="M423.7,697h-0.1v15.4h-8.3v-39.1h8.3v4h0.1c2-3.1,4.9-4.7,8.6-4.7c3.5,0,6.2,1.2,8,3.6
				c1.9,2.4,2.8,5.6,2.8,9.7c0,4.5-1.1,8.1-3.3,10.8c-2.2,2.7-5.1,4.1-8.8,4.1C427.8,700.8,425.4,699.5,423.7,697z M423.4,686v2.1
				c0,1.8,0.5,3.4,1.5,4.5c1,1.2,2.3,1.8,3.8,1.8c1.9,0,3.3-0.7,4.4-2.2c1-1.5,1.6-3.5,1.6-6.2c0-4.7-1.8-7.1-5.5-7.1
				c-1.7,0-3.1,0.6-4.1,1.9C424,682.2,423.4,683.9,423.4,686z"/>
			<path class="st16" d="M492.1,700.1h-8.3v-22.5c0-2.4,0.1-5.1,0.3-8h-0.2c-0.4,2.3-0.8,4-1.2,5l-8.8,25.5H467l-8.9-25.3
				c-0.2-0.7-0.6-2.4-1.2-5.2h-0.2c0.2,3.7,0.3,6.9,0.3,9.7v20.7h-7.6v-37.5h12.4l7.7,22.2c0.6,1.8,1.1,3.6,1.3,5.4h0.2
				c0.5-2.1,1-3.9,1.5-5.4l7.7-22.2h12.1V700.1z"/>
			<path class="st16" d="M523.9,689.1h-17.5c0.3,3.9,2.7,5.8,7.4,5.8c2.9,0,5.5-0.7,7.8-2.1v6c-2.5,1.3-5.7,2-9.7,2
				c-4.3,0-7.7-1.2-10.1-3.6c-2.4-2.4-3.6-5.7-3.6-10c0-4.5,1.3-8,3.9-10.6c2.6-2.6,5.8-3.9,9.5-3.9c3.9,0,6.9,1.2,9.1,3.5
				c2.1,2.3,3.2,5.5,3.2,9.4V689.1z M516.2,684c0-3.8-1.6-5.8-4.7-5.8c-1.3,0-2.5,0.6-3.4,1.6c-1,1.1-1.6,2.5-1.8,4.1H516.2z"/>
		</g>
	</g>
</g>
<g id="Layer_9">
	<g>
		<g>
			<g>
				<path class="st6" d="M720.6,449.8c0,126.8-76.4,235.7-185.7,283.3c0,0-0.1,0-0.1,0.1c-29.9,13-62.3,21.4-96.3,24.3
					c-8.8,0.8-17.7,1.1-26.7,1.1c-9,0-17.9-0.4-26.7-1.1c-29-2.5-56.9-9-83-18.9c-5.8-2.2-11.5-4.6-17.1-7.1
					c-23.5-10.6-45.4-24-65.3-39.9C148.6,635,103,547.8,103,449.8C103,279.3,241.3,141,411.8,141S720.6,279.3,720.6,449.8z"/>
			</g>
			<g>
				<path class="st13" d="M411.8,767.1c-9.1,0-18.3-0.4-27.4-1.2c-29.3-2.5-58-9-85.3-19.4c-6-2.3-11.9-4.7-17.6-7.3
					c-23.9-10.8-46.5-24.6-67.1-41C138.3,637.6,94.6,547.1,94.6,449.8c0-174.9,142.3-317.2,317.2-317.2
					c174.9,0,317.2,142.3,317.2,317.2c0,126.4-74.9,240.6-190.8,291c-31.6,13.7-64.8,22.1-99.1,25
					C430.1,766.7,420.9,767.1,411.8,767.1z M411.8,149.5c-165.6,0-300.4,134.8-300.4,300.4c0,92.1,41.4,177.8,113.5,235.2
					c19.5,15.5,40.9,28.6,63.5,38.8c5.4,2.4,11,4.8,16.7,6.9c25.9,9.8,53,16,80.8,18.4c17.2,1.5,34.7,1.5,51.9,0
					c32.4-2.8,63.9-10.7,93.6-23.6c109.9-47.8,180.8-156,180.8-275.6C712.2,284.2,577.4,149.5,411.8,149.5z"/>
			</g>
		</g>
		<g>
			<g>
				<g>
					<path class="st16" d="M512,472.7c0.2,55.6-39.6,97-92.9,96.5c-53.5-0.5-92.9-41.8-92.6-97c0.4-55.8,39.6-96.4,93.1-96.4
						C473.5,375.9,511.9,416.1,512,472.7z"/>
				</g>
			</g>
			<g>
				<path class="st16" d="M635.3,587.1c-19,24.8-39.7,49.6-63.9,68.9c-21,16.7-32.5,48.3-36.5,77.1c0,0-0.1,0-0.1,0.1
					c-29.9,13-62.3,21.4-96.3,24.3c-8.8,0.8-17.7,1.1-26.7,1.1c-9,0-17.9-0.4-26.7-1.1c-29-2.5-56.9-9-83-18.9v-41.2
					c-7.4,12.2-13.1,23.5-17.1,34.1c-23.5-10.6-45.4-24-65.3-39.9c7.1-16.8,16.8-33.1,29.1-48.3c24-29.7,54.9-47.4,94.3-47.4
					c42.8,0,85.5,0,128.3,0c79.4,0,144.7-77.3,131.8-156c-0.6-3.7-1.8-7.3-2.6-11c-5.9-25.7,5.6-42.8,29.5-48.4
					c27-6.4,40.3,12.4,43.8,35.2C683.1,477.4,674.2,536.4,635.3,587.1z"/>
			</g>
		</g>
		<g>
			<path class="st16" d="M397.7,293.4c-0.8-2.1-1.4-4.4-1.9-7c-0.4-2.6-0.7-5.1-0.7-7.4c0-3.7,0.4-7.1,1.1-10.1
				c0.7-3,1.8-5.9,3.3-8.6c1.4-2.7,3.3-5.3,5.4-7.7c2.2-2.4,4.7-4.9,7.6-7.3c3.1-2.6,5.7-5,8-7.2c2.3-2.2,4.2-4.4,5.8-6.6
				c1.6-2.2,2.8-4.5,3.6-6.9c0.8-2.4,1.2-5,1.2-7.9c0-2.5-0.4-4.8-1.3-6.9c-0.9-2.1-2.1-4-3.8-5.5c-1.6-1.5-3.7-2.7-6-3.6
				c-2.4-0.9-5-1.3-7.9-1.3c-6.3,0-12.8,1.3-19.5,3.9c-6.7,2.6-13.1,6.6-19.2,11.9v-36.3c6.2-3.7,12.9-6.5,20.2-8.3
				c7.3-1.8,14.9-2.8,22.6-2.8c7.5,0,14.4,0.8,20.8,2.5c6.4,1.6,12,4.2,16.8,7.8c4.8,3.5,8.5,8.1,11.2,13.6c2.7,5.5,4,12.1,4,19.8
				c0,4.9-0.6,9.3-1.7,13.3c-1.1,4-2.8,7.7-4.9,11.3c-2.2,3.5-4.9,6.9-8.1,10.2c-3.2,3.3-6.9,6.6-11.1,10.1
				c-2.8,2.3-5.3,4.5-7.4,6.5c-2.1,2-3.9,4-5.3,6c-1.4,2-2.5,4.1-3.2,6.3c-0.7,2.2-1.1,4.7-1.1,7.5c0,1.9,0.3,3.9,0.8,5.9
				c0.5,2,1.2,3.7,2.1,5.1H397.7z M415.3,346.2c-6.4,0-11.8-1.9-16-5.8c-4.3-4-6.4-8.8-6.4-14.2c0-5.6,2.1-10.3,6.4-14.1
				c4.3-3.8,9.6-5.7,16-5.7c6.3,0,11.6,1.9,15.8,5.7c4.2,3.7,6.3,8.4,6.3,14.1c0,5.8-2,10.6-6.1,14.3
				C427,344.3,421.7,346.2,415.3,346.2z"/>
		</g>
		<g>
			<path class="st16" d="M300.4,345.2c-1-0.4-2-1-3.1-1.8c-1.1-0.7-2-1.5-2.8-2.3c-1.3-1.3-2.3-2.6-3.1-3.9
				c-0.8-1.3-1.4-2.7-1.9-4.1c-0.4-1.4-0.7-3-0.8-4.6c-0.1-1.6-0.1-3.3,0.1-5.2c0.2-1.9,0.3-3.7,0.3-5.3c0-1.6-0.1-3-0.3-4.3
				c-0.2-1.3-0.6-2.5-1.1-3.6c-0.5-1.1-1.3-2.2-2.3-3.2c-0.9-0.9-1.8-1.5-2.9-1.9c-1-0.4-2.1-0.6-3.2-0.6c-1.1,0-2.2,0.3-3.3,0.8
				c-1.1,0.5-2.2,1.3-3.2,2.3c-2.2,2.2-4,4.9-5.4,8.1c-1.4,3.2-2.3,6.8-2.5,10.8l-12.6-12.6c0.9-3.4,2.2-6.7,4.1-9.9
				c1.9-3.2,4.2-6.1,6.9-8.8c2.6-2.6,5.3-4.7,8.1-6.4c2.8-1.7,5.6-2.7,8.5-3.1c2.9-0.4,5.7-0.2,8.6,0.8c2.8,1,5.6,2.8,8.3,5.5
				c1.7,1.7,3,3.4,4,5.2c1,1.8,1.7,3.6,2.2,5.6c0.5,2,0.7,4.1,0.7,6.3c0,2.2-0.1,4.7-0.4,7.3c-0.2,1.8-0.3,3.4-0.3,4.8
				c0,1.4,0,2.7,0.2,3.9c0.2,1.2,0.6,2.3,1.1,3.3c0.5,1,1.3,2,2.2,3c0.7,0.7,1.4,1.3,2.3,1.8c0.9,0.5,1.7,0.9,2.5,1L300.4,345.2z
				 M324.8,357.4c-2.2,2.2-4.7,3.4-7.6,3.5c-2.9,0.1-5.2-0.8-7.1-2.7c-1.9-1.9-2.8-4.3-2.7-7.1c0.2-2.8,1.4-5.3,3.6-7.5
				c2.2-2.2,4.7-3.4,7.4-3.5c2.7-0.2,5.1,0.7,7.1,2.7c2,2,3,4.4,2.8,7.1C328.2,352.7,327,355.2,324.8,357.4z"/>
		</g>
		<g>
			<path class="st16" d="M507.1,354.9c-2.1-2.1-3.3-4.6-3.4-7.3c-0.1-2.8,0.8-5,2.6-6.9c1.9-1.9,4.1-2.7,6.8-2.6
				c2.7,0.2,5.1,1.3,7.2,3.5c2.1,2.1,3.2,4.5,3.4,7.2c0.2,2.6-0.7,4.9-2.6,6.8c-1.9,1.9-4.2,2.8-6.8,2.7
				C511.6,358.1,509.2,357,507.1,354.9z M518.8,331.4c0.4-1,1-2,1.7-3c0.7-1,1.5-1.9,2.2-2.7c1.2-1.2,2.5-2.2,3.7-3
				c1.3-0.8,2.6-1.4,4-1.8c1.4-0.4,2.8-0.7,4.4-0.8c1.5-0.1,3.2-0.1,5,0.1c1.9,0.2,3.6,0.3,5.1,0.3c1.5,0,2.9-0.1,4.2-0.3
				c1.3-0.2,2.4-0.6,3.5-1.1c1.1-0.5,2.1-1.3,3-2.2c0.8-0.8,1.5-1.7,1.9-2.8c0.4-1,0.6-2,0.6-3.1c0-1.1-0.3-2.1-0.8-3.2
				c-0.5-1.1-1.2-2.1-2.2-3.1c-2.1-2.1-4.7-3.8-7.8-5.2c-3.1-1.4-6.6-2.2-10.3-2.4l12.1-12.1c3.3,0.8,6.5,2.2,9.5,4
				c3.1,1.8,5.9,4,8.5,6.6c2.5,2.5,4.5,5.1,6.1,7.8c1.6,2.7,2.6,5.4,3,8.2c0.4,2.8,0.2,5.5-0.8,8.3c-0.9,2.7-2.7,5.4-5.3,8
				c-1.6,1.6-3.3,2.9-5,3.9c-1.7,0.9-3.5,1.7-5.4,2.1c-1.9,0.5-3.9,0.7-6.1,0.7c-2.2,0-4.5-0.1-7-0.3c-1.7-0.2-3.3-0.3-4.6-0.3
				c-1.4,0-2.6,0-3.8,0.2c-1.1,0.2-2.2,0.5-3.2,1c-1,0.5-1.9,1.2-2.9,2.2c-0.6,0.6-1.2,1.4-1.7,2.2c-0.5,0.8-0.8,1.6-1,2.4
				L518.8,331.4z"/>
		</g>
		<g>
			<path class="st16" d="M476.6,292.6c-3.6-2.6-5.8-5.8-6.6-9.6c-0.8-3.9-0.1-7.4,2.1-10.5c2.2-3.1,5.3-4.9,9.2-5.3
				c3.9-0.4,7.6,0.7,11.2,3.3c3.5,2.5,5.7,5.7,6.5,9.5c0.8,3.7,0.1,7.2-2.1,10.4c-2.3,3.2-5.4,5.1-9.2,5.5
				C483.9,296.2,480.2,295.2,476.6,292.6z M487.9,256.1c0.4-1.5,1-3,1.8-4.7c0.8-1.6,1.7-3.1,2.6-4.4c1.5-2.1,3-3.8,4.7-5.2
				c1.6-1.4,3.4-2.6,5.3-3.5c1.9-0.9,3.9-1.6,6.1-2.1c2.2-0.5,4.6-0.8,7.1-1c2.7-0.2,5.2-0.5,7.3-0.8c2.2-0.3,4.1-0.8,5.9-1.4
				c1.8-0.6,3.4-1.4,4.8-2.4c1.4-1,2.7-2.3,3.8-3.9c1-1.4,1.7-2.8,2-4.4c0.4-1.5,0.4-3.1,0.1-4.6c-0.3-1.5-0.9-3-1.9-4.4
				c-1-1.4-2.3-2.7-3.9-3.9c-3.5-2.5-7.6-4.4-12.4-5.6c-4.8-1.2-9.9-1.6-15.4-1l14.5-20.2c4.9,0.4,9.8,1.6,14.6,3.5
				c4.8,1.9,9.4,4.4,13.7,7.5c4.2,3,7.7,6.2,10.6,9.7c2.9,3.5,5,7.2,6.3,11.1c1.2,3.9,1.5,7.9,0.8,12c-0.7,4.1-2.6,8.4-5.7,12.7
				c-2,2.7-4,5-6.3,6.7c-2.2,1.8-4.6,3.2-7.3,4.3c-2.6,1.1-5.5,1.9-8.6,2.4c-3.1,0.5-6.5,0.9-10.2,1.2c-2.5,0.2-4.7,0.4-6.7,0.7
				c-2,0.3-3.8,0.7-5.3,1.2c-1.6,0.5-3,1.3-4.3,2.2c-1.3,0.9-2.5,2.2-3.6,3.8c-0.8,1.1-1.4,2.3-1.9,3.6c-0.5,1.3-0.8,2.6-0.8,3.7
				L487.9,256.1z"/>
		</g>
		<g>
			<path class="st16" d="M326.3,270.4c-1.3-0.8-2.6-1.9-3.9-3.2c-1.3-1.3-2.4-2.6-3.3-3.9c-1.5-2.1-2.6-4.1-3.4-6.1
				c-0.8-2-1.4-4-1.6-6.1c-0.3-2.1-0.3-4.2-0.1-6.5c0.2-2.2,0.7-4.6,1.3-7.1c0.7-2.7,1.2-5.1,1.6-7.2c0.4-2.1,0.6-4.2,0.6-6
				c0-1.9-0.2-3.6-0.7-5.3c-0.5-1.6-1.3-3.3-2.5-4.9c-1-1.4-2.2-2.5-3.5-3.3c-1.3-0.8-2.8-1.3-4.3-1.5c-1.5-0.2-3.1-0.1-4.8,0.4
				c-1.7,0.5-3.3,1.3-4.9,2.4c-3.5,2.5-6.6,5.8-9.3,10c-2.7,4.2-4.7,8.9-5.9,14.3L267,216.2c2-4.5,4.6-8.8,8-12.7
				c3.3-4,7.2-7.5,11.5-10.6c4.2-3,8.4-5.3,12.6-7c4.2-1.6,8.4-2.4,12.5-2.4c4.1,0.1,8,1.1,11.7,3.1c3.7,2,7.1,5.1,10.2,9.4
				c2,2.7,3.4,5.4,4.4,8.1c1,2.7,1.5,5.4,1.8,8.3c0.2,2.8,0.1,5.8-0.4,8.9c-0.5,3.1-1.2,6.4-2.2,10c-0.6,2.4-1.1,4.6-1.5,6.6
				c-0.4,2-0.6,3.8-0.6,5.4c0,1.7,0.2,3.3,0.7,4.8c0.5,1.5,1.3,3.1,2.4,4.6c0.8,1.1,1.7,2.1,2.8,3c1.1,0.9,2.2,1.6,3.2,2
				L326.3,270.4z M357.2,292.8c-3.6,2.6-7.3,3.6-11.2,3.2c-4-0.5-7.1-2.3-9.2-5.4c-2.2-3.1-2.9-6.6-2.1-10.4c0.9-3.8,3.1-7,6.7-9.6
				c3.5-2.5,7.2-3.6,11.1-3.2c3.8,0.4,6.8,2.2,9.1,5.4c2.3,3.2,3.1,6.7,2.3,10.5C363,287.1,360.8,290.2,357.2,292.8z"/>
		</g>
		<g>
			<path class="st6" d="M363.3,700.1h-8.5v-15.3h-15.5v15.3h-8.5v-37.5h8.5v15h15.5v-15h8.5V700.1z"/>
			<path class="st6" d="M395.1,689.1h-17.5c0.3,3.9,2.7,5.8,7.4,5.8c2.9,0,5.5-0.7,7.8-2.1v6c-2.5,1.3-5.7,2-9.7,2
				c-4.3,0-7.7-1.2-10.1-3.6c-2.4-2.4-3.6-5.7-3.6-10c0-4.5,1.3-8,3.9-10.6c2.6-2.6,5.8-3.9,9.5-3.9c3.9,0,6.9,1.2,9.1,3.5
				c2.1,2.3,3.2,5.5,3.2,9.4V689.1z M387.5,684c0-3.8-1.6-5.8-4.7-5.8c-1.3,0-2.5,0.6-3.4,1.6c-1,1.1-1.6,2.5-1.8,4.1H387.5z"/>
			<path class="st6" d="M408.3,700.1h-8.3v-39.7h8.3V700.1z"/>
			<path class="st6" d="M423.7,697h-0.1v15.4h-8.3v-39.1h8.3v4h0.1c2-3.1,4.9-4.7,8.6-4.7c3.5,0,6.2,1.2,8,3.6
				c1.9,2.4,2.8,5.6,2.8,9.7c0,4.5-1.1,8.1-3.3,10.8c-2.2,2.7-5.1,4.1-8.8,4.1C427.8,700.8,425.4,699.5,423.7,697z M423.4,686v2.1
				c0,1.8,0.5,3.4,1.5,4.5c1,1.2,2.3,1.8,3.8,1.8c1.9,0,3.3-0.7,4.4-2.2c1-1.5,1.6-3.5,1.6-6.2c0-4.7-1.8-7.1-5.5-7.1
				c-1.7,0-3.1,0.6-4.1,1.9S423.4,683.9,423.4,686z"/>
			<path class="st6" d="M492.1,700.1h-8.3v-22.5c0-2.4,0.1-5.1,0.3-8h-0.2c-0.4,2.3-0.8,4-1.2,5l-8.8,25.5H467l-8.9-25.3
				c-0.2-0.7-0.6-2.4-1.2-5.2h-0.2c0.2,3.7,0.3,6.9,0.3,9.7v20.7h-7.6v-37.5h12.4l7.7,22.2c0.6,1.8,1.1,3.6,1.3,5.4h0.2
				c0.5-2.1,1-3.9,1.5-5.4l7.7-22.2h12.1V700.1z"/>
			<path class="st6" d="M523.9,689.1h-17.5c0.3,3.9,2.7,5.8,7.4,5.8c2.9,0,5.5-0.7,7.8-2.1v6c-2.5,1.3-5.7,2-9.7,2
				c-4.3,0-7.7-1.2-10.1-3.6c-2.4-2.4-3.6-5.7-3.6-10c0-4.5,1.3-8,3.9-10.6c2.6-2.6,5.8-3.9,9.5-3.9c3.9,0,6.9,1.2,9.1,3.5
				c2.1,2.3,3.2,5.5,3.2,9.4V689.1z M516.2,684c0-3.8-1.6-5.8-4.7-5.8c-1.3,0-2.5,0.6-3.4,1.6c-1,1.1-1.6,2.5-1.8,4.1H516.2z"/>
		</g>
		<g>
			<path class="st13" d="M411.8,767.1c-9.1,0-18.3-0.4-27.4-1.2c-29.3-2.5-58-9-85.3-19.4c-6-2.3-11.9-4.7-17.6-7.3
				c-23.9-10.8-46.5-24.6-67.1-41C138.3,637.6,94.6,547.1,94.6,449.8c0-174.9,142.3-317.2,317.2-317.2
				c174.9,0,317.2,142.3,317.2,317.2c0,126.4-74.9,240.6-190.8,291c-31.6,13.7-64.8,22.1-99.1,25
				C430.1,766.7,420.9,767.1,411.8,767.1z M411.8,149.5c-165.6,0-300.4,134.8-300.4,300.4c0,92.1,41.4,177.8,113.5,235.2
				c19.5,15.5,40.9,28.6,63.5,38.8c5.4,2.4,11,4.8,16.7,6.9c25.9,9.8,53,16,80.8,18.4c17.2,1.5,34.7,1.5,51.9,0
				c32.4-2.8,63.9-10.7,93.6-23.6c109.9-47.8,180.8-156,180.8-275.6C712.2,284.2,577.4,149.5,411.8,149.5z"/>
		</g>
	</g>
</g>
<g id="Layer_10" class="st0">
	<g class="st1">
		<g>
			<path class="st13" d="M720.6,448.6c0,126.8-76.4,235.7-185.7,283.3c0,0-0.1,0-0.1,0.1c-29.9,13-62.3,21.4-96.3,24.3
				c-8.8,0.8-17.7,1.1-26.7,1.1c-9,0-17.9-0.4-26.7-1.1c-29-2.5-56.9-9-83-18.9c-5.8-2.2-11.5-4.6-17.1-7.1
				c-23.5-10.6-45.4-24-65.3-39.9C148.6,633.8,103,546.5,103,448.6c0-170.6,138.3-308.8,308.8-308.8S720.6,278.1,720.6,448.6z"/>
			<path class="st6" d="M411.8,765.9c-9.1,0-18.3-0.4-27.4-1.2c-29.3-2.5-58-9-85.3-19.4c-6-2.3-11.9-4.7-17.6-7.3
				c-23.9-10.8-46.5-24.6-67.1-41C138.3,636.4,94.6,545.8,94.6,448.6c0-174.9,142.3-317.2,317.2-317.2S729,273.7,729,448.6
				c0,126.3-74.8,240.5-190.6,290.9l-0.4,0.2c-31.4,13.7-64.7,22.1-98.9,25C430.1,765.5,420.9,765.9,411.8,765.9z M411.8,148.2
				c-165.6,0-300.4,134.8-300.4,300.4c0,92.1,41.4,177.8,113.5,235.2c19.5,15.5,40.9,28.6,63.5,38.8c5.4,2.5,11,4.8,16.7,6.9
				c25.9,9.8,53,16,80.8,18.4c17.2,1.5,34.7,1.5,51.9,0c32.3-2.8,63.8-10.7,93.4-23.6l0.3-0.2c109.7-47.7,180.7-155.9,180.7-275.6
				C712.2,283,577.4,148.2,411.8,148.2z"/>
		</g>
		<g>
			<g>
				<g>
					<path class="st6" d="M512,471.5c0.2,55.6-39.6,97-92.9,96.5c-53.5-0.5-92.9-41.8-92.6-97c0.4-55.8,39.6-96.4,93.1-96.4
						C473.5,374.7,511.9,414.9,512,471.5z"/>
				</g>
			</g>
			<g>
				<path class="st6" d="M635.3,585.9c-19,24.8-39.7,49.6-63.9,68.9c-21,16.7-32.5,48.3-36.5,77.1c0,0-0.1,0-0.1,0.1
					c-29.9,13-62.3,21.4-96.3,24.3c-8.8,0.8-17.7,1.1-26.7,1.1c-9,0-17.9-0.4-26.7-1.1c-29-2.5-56.9-9-83-18.9v-41.2
					c-7.4,12.2-13.1,23.5-17.1,34.1c-23.5-10.6-45.4-24-65.3-39.9c7.1-16.8,16.8-33.1,29.1-48.3c24-29.7,54.9-47.4,94.3-47.4
					c42.8,0,85.5,0,128.3,0c79.4,0,144.7-77.3,131.8-156c-0.6-3.7-1.8-7.3-2.6-11c-5.9-25.7,5.6-42.8,29.5-48.4
					c27-6.4,40.3,12.4,43.8,35.2C683.1,476.1,674.2,535.1,635.3,585.9z"/>
			</g>
		</g>
		<g>
			<path class="st6" d="M397.7,292.2c-0.8-2.1-1.4-4.4-1.9-7c-0.4-2.6-0.7-5.1-0.7-7.4c0-3.7,0.4-7.1,1.1-10.1
				c0.7-3.1,1.8-5.9,3.3-8.6c1.4-2.7,3.3-5.3,5.4-7.7c2.2-2.4,4.7-4.9,7.6-7.3c3.1-2.6,5.7-5,8-7.2c2.3-2.2,4.2-4.4,5.8-6.6
				c1.6-2.2,2.8-4.5,3.6-6.9c0.8-2.4,1.2-5,1.2-7.9c0-2.5-0.4-4.8-1.3-6.9c-0.9-2.1-2.2-4-3.8-5.5c-1.6-1.5-3.7-2.7-6-3.6
				c-2.4-0.9-5-1.3-7.9-1.3c-6.3,0-12.8,1.3-19.5,3.9c-6.7,2.6-13.1,6.6-19.2,11.9v-36.3c6.2-3.7,12.9-6.5,20.2-8.3
				c7.3-1.8,14.9-2.8,22.6-2.8c7.5,0,14.4,0.8,20.8,2.5c6.4,1.6,12,4.2,16.8,7.8c4.8,3.5,8.5,8.1,11.2,13.6c2.7,5.5,4,12.1,4,19.8
				c0,4.9-0.6,9.3-1.7,13.3c-1.1,4-2.8,7.7-4.9,11.3c-2.2,3.5-4.9,6.9-8.1,10.2c-3.2,3.3-6.9,6.6-11.1,10.1
				c-2.8,2.3-5.3,4.5-7.4,6.5c-2.1,2-3.9,4-5.3,6c-1.4,2-2.5,4.1-3.2,6.3c-0.7,2.2-1.1,4.7-1.1,7.5c0,1.9,0.3,3.9,0.8,5.9
				c0.5,2,1.2,3.7,2.1,5.1H397.7z M415.3,344.9c-6.4,0-11.8-1.9-16-5.8c-4.3-4-6.4-8.8-6.4-14.2c0-5.6,2.1-10.3,6.4-14.1
				c4.3-3.8,9.6-5.7,16-5.7c6.3,0,11.6,1.9,15.8,5.7c4.2,3.7,6.3,8.4,6.3,14.1c0,5.8-2,10.6-6.1,14.3
				C427,343,421.7,344.9,415.3,344.9z"/>
		</g>
		<g>
			<path class="st6" d="M300.4,344c-1-0.4-2-1-3.1-1.8c-1.1-0.7-2-1.5-2.8-2.3c-1.3-1.3-2.3-2.6-3.1-3.9c-0.8-1.3-1.4-2.7-1.9-4.1
				c-0.4-1.4-0.7-2.9-0.8-4.6c-0.1-1.6-0.1-3.3,0.1-5.2c0.2-1.9,0.3-3.7,0.3-5.3c0-1.6-0.1-3-0.3-4.3c-0.2-1.3-0.6-2.5-1.1-3.6
				c-0.5-1.1-1.3-2.2-2.3-3.2c-0.9-0.9-1.8-1.5-2.9-1.9c-1-0.4-2.1-0.6-3.2-0.6c-1.1,0-2.2,0.3-3.3,0.8c-1.1,0.5-2.2,1.3-3.2,2.3
				c-2.2,2.2-4,4.9-5.4,8.1c-1.4,3.2-2.3,6.8-2.5,10.8l-12.6-12.6c0.9-3.4,2.2-6.7,4.1-9.9c1.9-3.2,4.2-6.1,6.9-8.8
				c2.6-2.6,5.3-4.7,8.1-6.4c2.8-1.7,5.6-2.7,8.5-3.1c2.9-0.4,5.7-0.2,8.6,0.8c2.8,1,5.6,2.8,8.3,5.5c1.7,1.7,3,3.4,4,5.2
				c1,1.8,1.7,3.6,2.2,5.6c0.5,2,0.7,4.1,0.7,6.3c0,2.2-0.1,4.7-0.4,7.3c-0.2,1.8-0.3,3.4-0.3,4.8c0,1.4,0,2.7,0.2,3.9
				c0.2,1.2,0.6,2.3,1.1,3.3c0.5,1,1.3,2,2.2,3c0.7,0.7,1.4,1.3,2.3,1.8c0.9,0.5,1.7,0.9,2.5,1L300.4,344z M324.8,356.2
				c-2.2,2.2-4.7,3.4-7.6,3.5c-2.9,0.1-5.2-0.8-7.1-2.7c-1.9-1.9-2.8-4.3-2.7-7.1c0.2-2.8,1.4-5.3,3.6-7.5c2.2-2.2,4.7-3.4,7.4-3.5
				c2.7-0.2,5.1,0.7,7.1,2.7c2,2,3,4.4,2.8,7.1C328.2,351.4,327,353.9,324.8,356.2z"/>
		</g>
		<g>
			<path class="st6" d="M507.1,353.6c-2.1-2.1-3.3-4.6-3.4-7.3c-0.1-2.8,0.8-5,2.6-6.9c1.9-1.9,4.1-2.7,6.8-2.6
				c2.7,0.2,5.1,1.3,7.2,3.5c2.1,2.1,3.2,4.5,3.4,7.2c0.2,2.6-0.7,4.9-2.6,6.8c-1.9,1.9-4.2,2.8-6.8,2.7
				C511.6,356.9,509.2,355.8,507.1,353.6z M518.8,330.2c0.4-1,1-2,1.7-3c0.7-1,1.5-1.9,2.2-2.7c1.2-1.2,2.5-2.2,3.7-3
				c1.3-0.8,2.6-1.4,4-1.8c1.4-0.4,2.8-0.7,4.4-0.8c1.5-0.1,3.2-0.1,5,0.1c1.9,0.2,3.6,0.3,5.1,0.3c1.5,0,2.9-0.1,4.2-0.3
				c1.3-0.2,2.4-0.6,3.5-1.1c1.1-0.5,2.1-1.3,3-2.2c0.8-0.8,1.5-1.7,1.9-2.8c0.4-1,0.6-2,0.6-3.1c0-1.1-0.3-2.1-0.8-3.2
				c-0.5-1.1-1.2-2.1-2.2-3.1c-2.1-2.1-4.7-3.8-7.8-5.2c-3.1-1.4-6.6-2.2-10.3-2.4l12.1-12.1c3.3,0.8,6.5,2.2,9.5,4
				c3.1,1.8,5.9,4,8.5,6.6c2.5,2.5,4.5,5.1,6.1,7.8c1.6,2.7,2.6,5.4,3,8.2c0.4,2.8,0.2,5.5-0.8,8.3c-0.9,2.7-2.7,5.4-5.3,8
				c-1.6,1.6-3.3,2.9-5,3.9c-1.7,0.9-3.5,1.7-5.4,2.1c-1.9,0.5-3.9,0.7-6.1,0.7c-2.2,0-4.5-0.1-7-0.3c-1.7-0.2-3.3-0.3-4.6-0.3
				c-1.4,0-2.6,0-3.8,0.2c-1.1,0.2-2.2,0.5-3.2,1c-1,0.5-1.9,1.2-2.9,2.2c-0.6,0.6-1.2,1.4-1.7,2.2c-0.5,0.8-0.8,1.6-1,2.4
				L518.8,330.2z"/>
		</g>
		<g>
			<path class="st6" d="M476.6,291.4c-3.6-2.6-5.8-5.8-6.6-9.6c-0.8-3.9-0.1-7.4,2.1-10.5c2.2-3.1,5.3-4.9,9.2-5.3
				c3.9-0.4,7.6,0.7,11.2,3.3c3.5,2.5,5.7,5.7,6.5,9.5c0.8,3.7,0.1,7.2-2.1,10.4c-2.3,3.2-5.4,5.1-9.2,5.5
				C483.9,295,480.2,293.9,476.6,291.4z M487.9,254.9c0.4-1.5,1-3,1.8-4.7c0.8-1.6,1.7-3.1,2.6-4.4c1.5-2.1,3-3.8,4.7-5.2
				c1.6-1.4,3.4-2.6,5.3-3.5c1.9-0.9,3.9-1.6,6.1-2.1c2.2-0.5,4.6-0.8,7.1-1c2.7-0.2,5.2-0.5,7.3-0.8c2.2-0.3,4.1-0.8,5.9-1.4
				c1.8-0.6,3.4-1.4,4.8-2.4c1.4-1,2.7-2.3,3.8-3.9c1-1.4,1.7-2.9,2-4.4c0.4-1.5,0.4-3.1,0.1-4.6c-0.3-1.5-0.9-3-1.9-4.4
				c-1-1.4-2.3-2.7-3.9-3.9c-3.5-2.5-7.6-4.4-12.4-5.6c-4.8-1.2-9.9-1.6-15.4-1l14.5-20.2c4.9,0.4,9.8,1.6,14.6,3.5
				c4.8,1.9,9.4,4.4,13.7,7.5c4.2,3,7.7,6.2,10.6,9.7c2.9,3.5,5,7.2,6.3,11.1c1.2,3.9,1.5,7.9,0.8,12c-0.7,4.1-2.6,8.4-5.7,12.7
				c-2,2.7-4,5-6.3,6.7c-2.2,1.8-4.6,3.2-7.3,4.3c-2.6,1.1-5.5,1.9-8.6,2.4c-3.1,0.5-6.5,0.9-10.2,1.2c-2.5,0.2-4.7,0.4-6.7,0.7
				c-2,0.3-3.8,0.7-5.3,1.2c-1.6,0.5-3,1.3-4.3,2.2c-1.3,0.9-2.5,2.2-3.6,3.8c-0.8,1.1-1.4,2.3-1.9,3.6c-0.5,1.3-0.8,2.6-0.8,3.7
				L487.9,254.9z"/>
		</g>
		<g>
			<path class="st6" d="M326.3,269.2c-1.3-0.8-2.6-1.9-3.9-3.2c-1.3-1.3-2.4-2.6-3.3-3.9c-1.5-2.1-2.6-4.1-3.4-6.1
				c-0.8-2-1.4-4-1.6-6.1c-0.3-2.1-0.3-4.2-0.1-6.5c0.2-2.2,0.7-4.6,1.3-7.1c0.7-2.7,1.2-5.1,1.6-7.2c0.4-2.1,0.6-4.2,0.6-6
				c0-1.9-0.2-3.6-0.7-5.3c-0.5-1.6-1.3-3.3-2.5-4.9c-1-1.4-2.2-2.5-3.5-3.3c-1.3-0.8-2.8-1.3-4.3-1.5c-1.5-0.2-3.1-0.1-4.8,0.4
				c-1.7,0.5-3.3,1.3-4.9,2.4c-3.5,2.5-6.6,5.8-9.3,10c-2.7,4.2-4.7,8.9-5.9,14.3L267,215c2-4.5,4.6-8.8,8-12.7
				c3.3-4,7.2-7.5,11.5-10.6c4.2-3,8.4-5.3,12.6-7c4.2-1.7,8.4-2.4,12.5-2.4c4.1,0.1,8,1.1,11.7,3.1c3.7,2,7.1,5.1,10.2,9.4
				c2,2.7,3.4,5.4,4.4,8.1c1,2.7,1.5,5.4,1.8,8.3c0.2,2.8,0.1,5.8-0.4,8.9c-0.5,3.1-1.2,6.4-2.2,10c-0.6,2.4-1.1,4.6-1.5,6.6
				c-0.4,2-0.6,3.8-0.6,5.4c0,1.7,0.2,3.3,0.7,4.8c0.5,1.5,1.3,3.1,2.4,4.6c0.8,1.1,1.7,2.1,2.8,3c1.1,0.9,2.2,1.6,3.2,2
				L326.3,269.2z M357.2,291.6c-3.6,2.6-7.3,3.6-11.2,3.2c-4-0.5-7.1-2.3-9.2-5.4c-2.2-3.1-2.9-6.6-2.1-10.4c0.9-3.8,3.1-7,6.7-9.6
				c3.5-2.5,7.2-3.6,11.1-3.2c3.8,0.4,6.9,2.2,9.1,5.4c2.3,3.2,3.1,6.7,2.3,10.5C363,285.8,360.8,289,357.2,291.6z"/>
		</g>
		<g>
			<path class="st13" d="M363.3,698.9h-8.5v-15.3h-15.5v15.3h-8.5v-37.5h8.5v15h15.5v-15h8.5V698.9z"/>
			<path class="st13" d="M395.1,687.9h-17.5c0.3,3.9,2.7,5.8,7.4,5.8c2.9,0,5.5-0.7,7.8-2.1v6c-2.5,1.3-5.7,2-9.7,2
				c-4.3,0-7.7-1.2-10.1-3.6c-2.4-2.4-3.6-5.7-3.6-10c0-4.4,1.3-8,3.9-10.6c2.6-2.6,5.8-3.9,9.5-3.9c3.9,0,6.9,1.2,9.1,3.5
				c2.1,2.3,3.2,5.5,3.2,9.4V687.9z M387.5,682.8c0-3.8-1.6-5.8-4.7-5.8c-1.3,0-2.5,0.5-3.4,1.6c-1,1.1-1.6,2.5-1.8,4.1H387.5z"/>
			<path class="st13" d="M408.3,698.9h-8.3v-39.7h8.3V698.9z"/>
			<path class="st13" d="M423.7,695.8h-0.1v15.4h-8.3v-39.1h8.3v4h0.1c2-3.1,4.9-4.7,8.6-4.7c3.5,0,6.2,1.2,8,3.6
				c1.9,2.4,2.8,5.6,2.8,9.7c0,4.5-1.1,8.1-3.3,10.8c-2.2,2.7-5.1,4.1-8.8,4.1C427.8,699.6,425.3,698.3,423.7,695.8z M423.4,684.8
				v2.1c0,1.8,0.5,3.4,1.5,4.5c1,1.2,2.3,1.8,3.8,1.8c1.9,0,3.3-0.7,4.4-2.2c1-1.5,1.6-3.5,1.6-6.2c0-4.7-1.8-7.1-5.5-7.1
				c-1.7,0-3.1,0.6-4.1,1.9C424,681,423.4,682.7,423.4,684.8z"/>
			<path class="st13" d="M492.1,698.9h-8.3v-22.4c0-2.4,0.1-5.1,0.3-8h-0.2c-0.4,2.3-0.8,4-1.2,5l-8.8,25.5H467l-8.9-25.2
				c-0.2-0.7-0.6-2.4-1.2-5.2h-0.2c0.2,3.7,0.3,6.9,0.3,9.7v20.7h-7.6v-37.5h12.4l7.7,22.2c0.6,1.8,1.1,3.6,1.3,5.4h0.2
				c0.5-2.1,1-3.9,1.5-5.4l7.7-22.2h12.1V698.9z"/>
			<path class="st13" d="M523.9,687.9h-17.5c0.3,3.9,2.7,5.8,7.4,5.8c2.9,0,5.5-0.7,7.8-2.1v6c-2.5,1.3-5.7,2-9.7,2
				c-4.3,0-7.7-1.2-10.1-3.6c-2.4-2.4-3.6-5.7-3.6-10c0-4.4,1.3-8,3.9-10.6c2.6-2.6,5.8-3.9,9.5-3.9c3.9,0,6.9,1.2,9.1,3.5
				c2.1,2.3,3.2,5.5,3.2,9.4V687.9z M516.2,682.8c0-3.8-1.6-5.8-4.7-5.8c-1.3,0-2.5,0.5-3.4,1.6c-1,1.1-1.6,2.5-1.8,4.1H516.2z"/>
		</g>
	</g>
</g>
<g id="Layer_11" class="st0">
	<g class="st1">
		<g>
			<path class="st13" d="M717.1,449.8c0,126.8-76.4,235.7-185.7,283.3c0,0-0.1,0-0.1,0.1c-29.9,13-62.3,21.4-96.3,24.3
				c-8.8,0.8-17.7,1.1-26.7,1.1c-9,0-17.9-0.4-26.7-1.1c-29-2.5-56.9-9-83-18.9c-5.8-2.2-11.5-4.6-17.1-7.1
				c-23.5-10.6-45.4-24-65.3-39.9C145.1,635,99.5,547.8,99.5,449.8C99.5,279.3,237.8,141,408.3,141S717.1,279.3,717.1,449.8z"/>
			<path class="st6" d="M408.3,767.1c-9.1,0-18.3-0.4-27.4-1.2c-29.3-2.5-58-9-85.3-19.4c-6-2.3-11.9-4.7-17.6-7.3
				c-23.9-10.8-46.5-24.6-67.1-41C134.8,637.6,91.1,547.1,91.1,449.8c0-174.9,142.3-317.2,317.2-317.2s317.2,142.3,317.2,317.2
				c0,126.3-74.8,240.5-190.6,290.9l-0.4,0.2c-31.4,13.7-64.7,22.1-98.9,25C426.7,766.7,417.5,767.1,408.3,767.1z M408.3,149.5
				c-165.6,0-300.4,134.8-300.4,300.4c0,92.1,41.4,177.8,113.5,235.2c19.5,15.5,40.9,28.6,63.5,38.8c5.4,2.4,11,4.8,16.7,6.9
				c25.9,9.8,53,16,80.7,18.4c17.2,1.5,34.8,1.5,51.9,0c32.4-2.8,63.8-10.7,93.5-23.6l0.1-0.1c109.9-47.8,180.8-156,180.8-275.6
				C708.7,284.2,574,149.5,408.3,149.5z"/>
		</g>
		<g>
			<g>
				<g>
					<path class="st16" d="M504.8,472.7c0.2,55.6-39.6,97-92.9,96.5c-53.5-0.5-92.9-41.8-92.6-97c0.4-55.8,39.6-96.4,93.1-96.4
						C466.2,375.9,504.6,416.1,504.8,472.7z"/>
				</g>
			</g>
			<g>
				<path class="st16" d="M628.1,587.1c-19,24.8-39.7,49.6-63.9,68.9c-21,16.7-32.5,48.3-36.5,77.1c0,0-0.1,0-0.1,0.1
					c-29.9,13-62.3,21.4-96.3,24.3c-8.8,0.8-17.7,1.1-26.7,1.1c-9,0-17.9-0.4-26.7-1.1c-29-2.5-56.9-9-83-18.9v-41.2
					c-7.4,12.2-13.1,23.5-17.1,34.1c-23.5-10.6-45.4-24-65.3-39.9c7.1-16.8,16.8-33.1,29.1-48.3c24-29.7,54.9-47.4,94.3-47.4
					c42.8,0,85.5,0,128.3,0c79.4,0,144.7-77.3,131.8-156c-0.6-3.7-1.8-7.3-2.6-11c-5.9-25.7,5.6-42.8,29.5-48.4
					c27-6.4,40.3,12.4,43.8,35.2C675.9,477.4,667,536.4,628.1,587.1z"/>
			</g>
		</g>
		<g>
			<path class="st16" d="M390.5,293.4c-0.8-2.1-1.4-4.4-1.9-7c-0.4-2.6-0.7-5.1-0.7-7.4c0-3.7,0.4-7.1,1.1-10.1
				c0.7-3,1.8-5.9,3.3-8.6c1.4-2.7,3.3-5.3,5.4-7.7c2.2-2.4,4.7-4.9,7.6-7.3c3-2.6,5.7-5,8-7.2c2.3-2.2,4.2-4.4,5.8-6.6
				c1.6-2.2,2.8-4.5,3.6-6.9c0.8-2.4,1.2-5,1.2-7.9c0-2.5-0.4-4.8-1.3-6.9c-0.9-2.1-2.1-4-3.8-5.5c-1.6-1.5-3.7-2.7-6-3.6
				c-2.4-0.9-5-1.3-7.9-1.3c-6.3,0-12.8,1.3-19.5,3.9c-6.7,2.6-13.1,6.6-19.2,11.9v-36.3c6.2-3.7,12.9-6.5,20.2-8.3
				c7.3-1.8,14.9-2.8,22.6-2.8c7.5,0,14.4,0.8,20.8,2.5c6.4,1.6,12,4.2,16.8,7.8c4.8,3.5,8.5,8.1,11.2,13.6c2.7,5.5,4,12.1,4,19.8
				c0,4.9-0.6,9.3-1.7,13.3c-1.1,4-2.8,7.7-4.9,11.3c-2.2,3.5-4.9,6.9-8.1,10.2c-3.2,3.3-6.9,6.6-11.1,10.1
				c-2.8,2.3-5.3,4.5-7.4,6.5c-2.1,2-3.9,4-5.3,6c-1.4,2-2.5,4.1-3.2,6.3c-0.7,2.2-1.1,4.7-1.1,7.5c0,1.9,0.3,3.9,0.8,5.9
				c0.5,2,1.2,3.7,2.1,5.1H390.5z M408.1,346.2c-6.4,0-11.8-1.9-16-5.8c-4.3-4-6.4-8.8-6.4-14.2c0-5.6,2.1-10.3,6.4-14.1
				c4.3-3.8,9.6-5.7,16-5.7c6.3,0,11.6,1.9,15.8,5.7c4.2,3.7,6.3,8.4,6.3,14.1c0,5.8-2,10.6-6.1,14.3
				C419.8,344.3,414.5,346.2,408.1,346.2z"/>
		</g>
		<g>
			<path class="st16" d="M293.2,345.2c-1-0.4-2-1-3.1-1.8c-1.1-0.7-2-1.5-2.8-2.3c-1.3-1.3-2.3-2.6-3.1-3.9
				c-0.8-1.3-1.4-2.7-1.9-4.1c-0.4-1.4-0.7-3-0.8-4.6c-0.1-1.6-0.1-3.3,0.1-5.2c0.2-1.9,0.3-3.7,0.3-5.3c0-1.6-0.1-3-0.3-4.3
				c-0.2-1.3-0.6-2.5-1.1-3.6c-0.5-1.1-1.3-2.2-2.3-3.2c-0.9-0.9-1.8-1.5-2.9-1.9c-1-0.4-2.1-0.6-3.2-0.6c-1.1,0-2.2,0.3-3.3,0.8
				c-1.1,0.5-2.2,1.3-3.2,2.3c-2.2,2.2-4,4.9-5.4,8.1c-1.4,3.2-2.3,6.8-2.5,10.8l-12.6-12.6c0.9-3.4,2.2-6.7,4.1-9.9
				c1.9-3.2,4.2-6.1,6.9-8.8c2.6-2.6,5.3-4.7,8.1-6.4c2.8-1.7,5.6-2.7,8.5-3.1c2.9-0.4,5.7-0.2,8.6,0.8c2.8,1,5.6,2.8,8.3,5.5
				c1.7,1.7,3,3.4,4,5.2c1,1.8,1.7,3.6,2.2,5.6c0.5,2,0.7,4.1,0.7,6.3c0,2.2-0.1,4.7-0.4,7.3c-0.2,1.8-0.3,3.4-0.3,4.8
				c0,1.4,0,2.7,0.2,3.9c0.2,1.2,0.6,2.3,1.1,3.3c0.5,1,1.3,2,2.2,3c0.7,0.7,1.4,1.3,2.3,1.8c0.9,0.5,1.7,0.9,2.5,1L293.2,345.2z
				 M317.5,357.4c-2.2,2.2-4.7,3.4-7.6,3.5c-2.9,0.1-5.2-0.8-7.1-2.7c-1.9-1.9-2.8-4.3-2.7-7.1c0.2-2.8,1.4-5.3,3.6-7.5
				c2.2-2.2,4.7-3.4,7.4-3.5c2.7-0.2,5.1,0.7,7.1,2.7c2,2,3,4.4,2.8,7.1C320.9,352.7,319.8,355.2,317.5,357.4z"/>
		</g>
		<g>
			<path class="st16" d="M499.9,354.9c-2.1-2.1-3.3-4.6-3.4-7.3c-0.1-2.8,0.8-5,2.6-6.9c1.9-1.9,4.1-2.7,6.8-2.6
				c2.7,0.2,5.1,1.3,7.2,3.5c2.1,2.1,3.2,4.5,3.4,7.2c0.2,2.6-0.7,4.9-2.6,6.8c-1.9,1.9-4.2,2.8-6.8,2.7
				C504.4,358.1,502,357,499.9,354.9z M511.6,331.4c0.4-1,1-2,1.7-3c0.7-1,1.5-1.9,2.2-2.7c1.2-1.2,2.5-2.2,3.7-3
				c1.3-0.8,2.6-1.4,4-1.8c1.4-0.4,2.8-0.7,4.4-0.8c1.5-0.1,3.2-0.1,5,0.1c1.9,0.2,3.6,0.3,5.1,0.3c1.5,0,2.9-0.1,4.2-0.3
				c1.3-0.2,2.4-0.6,3.5-1.1c1.1-0.5,2.1-1.3,3-2.2c0.8-0.8,1.5-1.7,1.9-2.8c0.4-1,0.6-2,0.6-3.1c0-1.1-0.3-2.1-0.8-3.2
				c-0.5-1.1-1.2-2.1-2.2-3.1c-2.1-2.1-4.7-3.8-7.8-5.2c-3.1-1.4-6.6-2.2-10.3-2.4l12.1-12.1c3.3,0.8,6.5,2.2,9.5,4
				c3.1,1.8,5.9,4,8.5,6.6c2.5,2.5,4.5,5.1,6.1,7.8c1.6,2.7,2.6,5.4,3,8.2c0.4,2.8,0.2,5.5-0.8,8.3c-0.9,2.7-2.7,5.4-5.3,8
				c-1.6,1.6-3.3,2.9-5,3.9c-1.7,0.9-3.5,1.7-5.4,2.1c-1.9,0.5-3.9,0.7-6.1,0.7c-2.2,0-4.5-0.1-7.1-0.3c-1.7-0.2-3.3-0.3-4.6-0.3
				c-1.4,0-2.6,0-3.8,0.2s-2.2,0.5-3.2,1c-1,0.5-1.9,1.2-2.9,2.2c-0.6,0.6-1.2,1.4-1.7,2.2c-0.5,0.8-0.8,1.6-1,2.4L511.6,331.4z"/>
		</g>
		<g>
			<path class="st6" d="M465.8,289.7c-3.1-2.2-5-5-5.7-8.3c-0.7-3.4,0-6.4,1.8-9c1.9-2.7,4.6-4.2,7.9-4.6c3.3-0.3,6.6,0.6,9.6,2.8
				c3,2.2,4.9,4.9,5.6,8.2c0.7,3.2,0.1,6.2-1.8,8.9c-2,2.8-4.6,4.4-7.9,4.8C472.1,292.8,468.9,291.9,465.8,289.7z M475.5,258.2
				c0.3-1.3,0.8-2.6,1.5-4c0.7-1.4,1.4-2.7,2.2-3.8c1.3-1.8,2.6-3.3,4-4.5c1.4-1.2,2.9-2.2,4.5-3c1.6-0.8,3.4-1.4,5.3-1.8
				c1.9-0.4,3.9-0.7,6.2-0.9c2.4-0.2,4.5-0.4,6.3-0.7c1.9-0.3,3.6-0.7,5.1-1.2c1.5-0.5,2.9-1.2,4.1-2.1c1.2-0.9,2.3-2,3.3-3.4
				c0.9-1.2,1.4-2.5,1.8-3.8c0.3-1.3,0.3-2.6,0.1-3.9c-0.3-1.3-0.8-2.6-1.6-3.8c-0.8-1.2-1.9-2.4-3.3-3.4c-3-2.2-6.6-3.8-10.7-4.8
				c-4.1-1.1-8.6-1.4-13.3-0.9l12.5-17.4c4.2,0.4,8.4,1.4,12.6,3c4.1,1.6,8.1,3.8,11.8,6.5c3.6,2.6,6.6,5.4,9.2,8.4
				c2.5,3,4.3,6.2,5.4,9.5c1.1,3.3,1.3,6.8,0.7,10.4c-0.6,3.6-2.2,7.2-4.9,10.9c-1.7,2.4-3.5,4.3-5.4,5.8c-1.9,1.5-4,2.8-6.3,3.7
				c-2.3,1-4.7,1.7-7.4,2.1c-2.7,0.5-5.6,0.8-8.8,1c-2.2,0.1-4.1,0.3-5.8,0.6c-1.7,0.2-3.3,0.6-4.6,1c-1.4,0.5-2.6,1.1-3.7,1.9
				c-1.1,0.8-2.1,1.9-3.1,3.2c-0.7,0.9-1.2,2-1.7,3.1c-0.4,1.1-0.7,2.2-0.7,3.2L475.5,258.2z"/>
		</g>
		<g>
			<path class="st6" d="M319.4,276c-1.1-0.7-2.2-1.6-3.3-2.7c-1.1-1.1-2.1-2.2-2.9-3.3c-1.3-1.8-2.3-3.5-3-5.2
				c-0.7-1.7-1.2-3.5-1.4-5.3c-0.2-1.8-0.2-3.7-0.1-5.6c0.2-1.9,0.6-4,1.1-6.1c0.6-2.3,1-4.4,1.4-6.2c0.3-1.9,0.5-3.6,0.5-5.2
				c0-1.6-0.2-3.1-0.6-4.5c-0.4-1.4-1.1-2.8-2.1-4.2c-0.9-1.2-1.9-2.2-3-2.9c-1.2-0.7-2.4-1.2-3.7-1.3c-1.3-0.2-2.7,0-4.1,0.3
				c-1.4,0.4-2.9,1.1-4.3,2.1c-3,2.2-5.7,5-8,8.6c-2.3,3.6-4,7.7-5.1,12.3l-12.5-17.4c1.7-3.9,4-7.6,6.9-11c2.9-3.4,6.2-6.5,9.9-9.1
				c3.6-2.6,7.2-4.6,10.9-6c3.7-1.4,7.2-2.1,10.8-2.1c3.5,0.1,6.9,0.9,10.1,2.7c3.2,1.7,6.1,4.4,8.8,8.1c1.7,2.4,2.9,4.7,3.8,7
				c0.8,2.3,1.3,4.7,1.5,7.1c0.2,2.4,0.1,5-0.4,7.7c-0.4,2.7-1,5.6-1.9,8.7c-0.5,2.1-1,4-1.3,5.7s-0.5,3.3-0.5,4.7
				c0,1.4,0.2,2.8,0.6,4.1c0.4,1.3,1.1,2.6,2.1,4c0.7,0.9,1.5,1.8,2.4,2.6c0.9,0.8,1.9,1.4,2.8,1.7L319.4,276z M346.1,295.3
				c-3.1,2.2-6.3,3.1-9.7,2.7c-3.4-0.5-6.1-2-8-4.6c-1.9-2.7-2.5-5.7-1.8-9c0.7-3.3,2.7-6,5.7-8.2c3-2.2,6.2-3.1,9.5-2.7
				c3.3,0.3,5.9,1.9,7.9,4.6c2,2.8,2.7,5.8,2,9C351,290.4,349.1,293.1,346.1,295.3z"/>
		</g>
		<g>
			<path class="st6" d="M356.1,700.1h-8.5v-15.3H332v15.3h-8.5v-37.5h8.5v15h15.5v-15h8.5V700.1z"/>
			<path class="st6" d="M387.9,689.1h-17.5c0.3,3.9,2.7,5.8,7.4,5.8c2.9,0,5.5-0.7,7.8-2.1v6c-2.5,1.3-5.7,2-9.7,2
				c-4.3,0-7.7-1.2-10.1-3.6c-2.4-2.4-3.6-5.7-3.6-10c0-4.5,1.3-8,3.9-10.6c2.6-2.6,5.8-3.9,9.5-3.9c3.9,0,6.9,1.2,9.1,3.5
				c2.1,2.3,3.2,5.5,3.2,9.4V689.1z M380.2,684c0-3.8-1.6-5.8-4.7-5.8c-1.3,0-2.5,0.5-3.4,1.6c-1,1.1-1.6,2.5-1.8,4.1H380.2z"/>
			<path class="st6" d="M401.1,700.1h-8.3v-39.7h8.3V700.1z"/>
			<path class="st6" d="M416.4,697h-0.1v15.4h-8.3v-39.1h8.3v4h0.1c2-3.1,4.9-4.7,8.6-4.7c3.5,0,6.2,1.2,8,3.6
				c1.9,2.4,2.8,5.6,2.8,9.7c0,4.5-1.1,8.1-3.3,10.8c-2.2,2.7-5.1,4.1-8.8,4.1C420.6,700.8,418.1,699.5,416.4,697z M416.2,686v2.1
				c0,1.8,0.5,3.4,1.5,4.5c1,1.2,2.3,1.8,3.8,1.8c1.9,0,3.3-0.7,4.4-2.2c1-1.5,1.6-3.5,1.6-6.2c0-4.7-1.8-7.1-5.5-7.1
				c-1.7,0-3.1,0.6-4.1,1.9C416.7,682.2,416.2,683.9,416.2,686z"/>
			<path class="st6" d="M484.9,700.1h-8.3v-22.4c0-2.4,0.1-5.1,0.3-8h-0.2c-0.4,2.3-0.8,4-1.2,5l-8.8,25.5h-6.9l-8.9-25.2
				c-0.2-0.7-0.6-2.4-1.2-5.2h-0.2c0.2,3.7,0.3,6.9,0.3,9.7v20.7h-7.6v-37.5h12.4l7.7,22.2c0.6,1.8,1.1,3.6,1.3,5.4h0.2
				c0.5-2.1,1-3.9,1.5-5.4l7.7-22.2h12.1V700.1z"/>
			<path class="st6" d="M516.7,689.1h-17.5c0.3,3.9,2.7,5.8,7.4,5.8c2.9,0,5.5-0.7,7.8-2.1v6c-2.5,1.3-5.7,2-9.7,2
				c-4.3,0-7.7-1.2-10.1-3.6c-2.4-2.4-3.6-5.7-3.6-10c0-4.5,1.3-8,3.9-10.6c2.6-2.6,5.8-3.9,9.5-3.9c3.9,0,6.9,1.2,9.1,3.5
				c2.1,2.3,3.2,5.5,3.2,9.4V689.1z M509,684c0-3.8-1.6-5.8-4.7-5.8c-1.3,0-2.5,0.5-3.4,1.6c-1,1.1-1.6,2.5-1.8,4.1H509z"/>
		</g>
		<g>
			<path class="st6" d="M408.3,767.1c-9.1,0-18.3-0.4-27.4-1.2c-29.3-2.5-58-9-85.3-19.4c-6-2.3-11.9-4.7-17.6-7.3
				c-23.9-10.8-46.5-24.6-67.1-41C134.8,637.6,91.1,547.1,91.1,449.8c0-174.9,142.3-317.2,317.2-317.2s317.2,142.3,317.2,317.2
				c0,126.3-74.8,240.5-190.6,290.9l-0.4,0.2c-31.4,13.7-64.7,22.1-98.9,25C426.7,766.7,417.5,767.1,408.3,767.1z M408.3,149.5
				c-165.6,0-300.4,134.8-300.4,300.4c0,92.1,41.4,177.8,113.5,235.2c19.5,15.5,40.9,28.6,63.5,38.8c5.4,2.4,11,4.8,16.7,6.9
				c25.9,9.8,53,16,80.7,18.4c17.2,1.5,34.8,1.5,51.9,0c32.4-2.8,63.8-10.7,93.5-23.6l0.1-0.1c109.9-47.8,180.8-156,180.8-275.6
				C708.7,284.2,574,149.5,408.3,149.5z"/>
		</g>
	</g>
</g>
</svg>
