<?xml version="1.0" encoding="utf-8"?>
<!-- Generator: Adobe Illustrator 21.0.1, SVG Export Plug-In . SVG Version: 6.00 Build 0)  -->
<svg version="1.1" xmlns="http://www.w3.org/2000/svg" xmlns:xlink="http://www.w3.org/1999/xlink" x="0px" y="0px"
	 viewBox="0 0 864 864" style="enable-background:new 0 0 864 864;" xml:space="preserve">
<style type="text/css">
	.st0{display:none;}
	.st1{display:inline;}
	.st2{font-family:'MyriadPro-Bold';}
	.st3{font-size:326.5631px;}
	.st4{font-size:265.031px;}
	.st5{font-size:160.0479px;}
	.st6{font-size:153.9963px;}
	.st7{font-size:224.0871px;}
	.st8{font-size:224.0866px;}
	.st9{font-size:224.0874px;}
	.st10{font-size:224.0864px;}
	.st11{font-size:79.1896px;}
	.st12{font-size:79.1893px;}
	.st13{font-size:79.189px;}
	.st14{font-size:96.4277px;}
	.st15{font-size:96.4274px;}
</style>
<g id="Layer_1" class="st0">
	<g class="st1">
		<g>
			<g>
				<path d="M547.4,456.3C547.6,523,499.9,572.6,436,572c-64.2-0.6-111.4-50.1-111-116.3c0.4-66.9,47.5-115.5,111.7-115.5
					C501.1,340.2,547.2,388.4,547.4,456.3z"/>
			</g>
			<path d="M267.1,797.8c2.5-20.8,11.9-44.7,28.6-72.1c0,26.3,0,49.9,0,72.1h279.1c-0.1-8.5-0.1-17-0.2-25.5
				c-0.4-41.7,11.1-70.2,43.9-96.3c29.1-23.1,53.9-52.8,76.7-82.6c46.7-60.8,57.3-131.6,46.2-205.6c-4.1-27.4-20.1-49.9-52.5-42.3
				c-28.6,6.7-42.5,27.2-35.4,58.1c1,4.4,2.4,8.8,3.1,13.2c15.5,94.4-62.8,187.1-158,187.1c-51.3,0-102.6,0-153.9,0
				c-47.2,0-84.3,21.2-113.1,56.8c-33.6,41.5-50.8,89.2-52.3,137H267.1z"/>
		</g>
		<text transform="matrix(1 0 0 1 374.369 300.4766)" class="st2 st3">?</text>
		<text transform="matrix(0.7071 -0.7071 0.7071 0.7071 318.1239 361.7157)" class="st2 st4">?</text>
		<text transform="matrix(0.7071 0.7071 -0.7071 0.7071 490.6478 285.5411)" class="st2 st4">?</text>
	</g>
</g>
<g id="Layer_2" class="st0">
	<g class="st1">
		<g>
			<g>
				<path d="M554.7,429.1c0.2,66.7-47.5,116.3-111.4,115.7c-64.2-0.6-111.4-50.1-111-116.3c0.4-66.9,47.5-115.5,111.7-115.5
					C508.4,313,554.5,361.3,554.7,429.1z"/>
			</g>
			<path d="M274.4,770.6c2.5-20.8,11.9-44.7,28.6-72.1c0,26.3,0,49.9,0,72.1h279.1c-0.1-8.5-0.1-17-0.2-25.5
				c-0.4-41.7,11.1-70.2,43.9-96.3c29.1-23.1,53.9-52.8,76.7-82.6c46.7-60.8,57.3-131.6,46.2-205.6c-4.1-27.4-20.1-49.9-52.5-42.3
				c-28.6,6.7-42.5,27.2-35.4,58.1c1,4.4,2.4,8.8,3.1,13.2c15.5,94.4-62.8,187.1-158,187.1c-51.3,0-102.6,0-153.9,0
				c-47.2,0-84.3,21.2-113.1,56.8c-33.6,41.5-50.8,89.2-52.3,137H274.4z"/>
		</g>
		<text transform="matrix(1 0 0 1 381.6649 273.335)" class="st2 st3">?</text>
		<text transform="matrix(0.7071 -0.7071 0.7071 0.7071 303.1513 313.1976)" class="st2 st5">?</text>
		<text transform="matrix(0.7071 0.7071 -0.7071 0.7071 547.83 265.5622)" class="st2 st6">?</text>
		<text transform="matrix(0.8124 0.583 -0.583 0.8124 493.1647 177.9763)" class="st2 st7">?</text>
		<text transform="matrix(0.8125 -0.583 0.583 0.8125 332.1733 230.4116)" class="st2 st8">?</text>
	</g>
</g>
<g id="Layer_3">
	<g>
		<g>
			<g>
				<path d="M567.6,505.5c0.2,66.7-47.5,116.3-111.4,115.7c-64.2-0.6-111.4-50.1-111-116.3c0.4-66.9,47.5-115.5,111.7-115.5
					C521.4,389.4,567.4,437.7,567.6,505.5z"/>
			</g>
			<path d="M287.3,847c2.5-20.8,11.9-44.7,28.6-72.1c0,26.3,0,49.9,0,72.1H595c-0.1-8.5-0.1-17-0.2-25.5
				c-0.4-41.7,11.1-70.2,43.9-96.3c29.1-23.1,53.9-52.8,76.7-82.6c46.7-60.8,57.3-131.6,46.2-205.6c-4.1-27.4-20.1-49.9-52.5-42.3
				c-28.6,6.7-42.5,27.2-35.4,58.1c1,4.4,2.4,8.8,3.1,13.2c15.5,94.4-62.8,187.1-158,187.1c-51.3,0-102.6,0-153.9,0
				c-47.2,0-84.3,21.2-113.1,56.8c-33.6,41.5-50.8,89.2-52.3,137H287.3z"/>
		</g>
		<text transform="matrix(1 0 0 1 394.576 349.6953)" class="st2 st3">?</text>
		<text transform="matrix(0.7071 -0.7071 0.7071 0.7071 286.6974 427.0807)" class="st2 st5">?</text>
		<text transform="matrix(0.7071 0.7071 -0.7071 0.7071 588.8818 389.5572)" class="st2 st6">?</text>
		<text transform="matrix(0.8124 0.583 -0.583 0.8124 535.8143 297.9275)" class="st2 st7">?</text>
		<text transform="matrix(0.8125 -0.583 0.583 0.8125 315.8119 349.8308)" class="st2 st8">?</text>
	</g>
</g>
<g id="Layer_4" class="st0">
	<g class="st1">
		<g>
			<g>
				<path d="M554.7,454.3c0.2,66.7-47.5,116.3-111.4,115.7c-64.2-0.6-111.4-50.1-111-116.3c0.4-66.9,47.5-115.5,111.7-115.5
					C508.4,338.2,554.5,386.5,554.7,454.3z"/>
			</g>
			<path d="M274.4,795.8c2.5-20.8,11.9-44.7,28.6-72.1c0,26.3,0,49.9,0,72.1h279.1c-0.1-8.5-0.1-17-0.2-25.5
				c-0.4-41.7,11.1-70.2,43.9-96.3c29.1-23.1,53.9-52.8,76.7-82.6c46.7-60.8,57.3-131.6,46.2-205.6c-4.1-27.4-20.1-49.9-52.5-42.3
				c-28.6,6.7-42.5,27.2-35.4,58.1c1,4.4,2.4,8.8,3.1,13.2C679.5,509.3,601.2,602,506,602c-51.3,0-102.6,0-153.9,0
				c-47.2,0-84.3,21.2-113.1,56.8c-33.6,41.5-50.8,89.2-52.3,137H274.4z"/>
		</g>
		<text transform="matrix(1 0 0 1 381.6649 298.5107)" class="st2 st3">?</text>
		<text transform="matrix(0.5735 -0.8192 0.8192 0.5735 269.5985 393.1457)" class="st2 st5">?</text>
		<text transform="matrix(0.7071 0.7071 -0.7071 0.7071 575.9718 338.3742)" class="st2 st6">?</text>
		<text transform="matrix(0.5825 0.8128 -0.8128 0.5825 513.8885 206.2703)" class="st2 st9">?</text>
		<text transform="matrix(0.9128 -0.4084 0.4084 0.9128 288.2494 264.9237)" class="st2 st10">?</text>
		<text transform="matrix(0.7071 0.7071 -0.7071 0.7071 540.2579 330.3385)" class="st2 st11">?</text>
		<text transform="matrix(0.9233 0.3839 -0.3839 0.9233 540.4998 152.8084)" class="st2 st11">?</text>
		<text transform="matrix(0.9484 -0.3171 0.3171 0.9484 370.2698 214.9108)" class="st2 st12">?</text>
		<text transform="matrix(0.8143 -0.5804 0.5804 0.8143 314.7659 344.8482)" class="st2 st13">?</text>
		<text transform="matrix(0.4489 -0.8936 0.8936 0.4489 246.5483 264.8671)" class="st2 st14">?</text>
		<text transform="matrix(0.3145 0.9493 -0.9493 0.3145 668.5241 237.4064)" class="st2 st15">?</text>
	</g>
</g>
</svg>
